<?xml version="1.0" encoding="UTF-8"?>
<svg id="Layer_1" xmlns="http://www.w3.org/2000/svg" version="1.1" viewBox="0 0 596.35 982.96">
  <!-- Generator: Adobe Illustrator 30.2.1, SVG Export Plug-In . SVG Version: 2.1.1 Build 1)  -->
  <g>
    <path d="M538.3,693.11l-.1-1.77c-.64-11.24-2.05-22.86-4.19-34.55-12.48-68.27-42.07-141.54-79.17-195.99-30.21-44.35-63.74-74.75-99.64-90.34l-.66-.29v-18.03l1.51.63c21.15,8.81,41.96,22.8,61.85,41.58,15.92,15.02,31.29,33.12,45.69,53.8,40.88,58.71,73.51,137.76,87.28,211.46,1.48,7.92,2.75,15.75,3.77,23.27l.1.73-16.45,9.5ZM356.73,368.74c36.04,15.84,69.65,46.4,99.92,90.83,37.26,54.69,66.98,128.27,79.51,196.83,2.04,11.16,3.42,22.27,4.11,33.05l12.11-6.99c-1-7.26-2.23-14.81-3.65-22.43-13.72-73.42-46.21-152.15-86.93-210.62-22.22-31.91-58.41-73.94-105.08-93.97v13.31Z"/>
    <path d="M515.9,706.04l-.11-1.76c-1.55-23.85-12.26-46.35-30.97-65.06-5.76-5.76-12.19-11.1-19.11-15.89l-.29-.2-20.12-56.64c-.59-1.65-1.67-3.02-3.12-3.95l-.41-.27-.08-.49c-9.85-63.6-35.78-105.55-55.79-129.54-12.04-14.44-23.46-24.3-30.92-30.04l-.43-.33v-16.32l1.58.78c31.05,15.37,60.36,43.08,87.12,82.35,36.05,52.91,64.82,124.17,76.96,190.61,2.56,14.01,4.01,27.84,4.31,41.11v.65s-8.6,4.98-8.6,4.98ZM467.24,621.74c6.92,4.81,13.35,10.17,19.12,15.94,18.63,18.63,29.49,40.97,31.48,64.71l4.46-2.58c-.33-12.95-1.76-26.44-4.25-40.12-12.09-66.16-40.73-137.1-76.62-189.77-26.09-38.29-54.58-65.48-84.7-80.83v11.71c7.55,5.85,18.9,15.73,30.84,30.04,20.14,24.14,46.21,66.3,56.2,130.13,1.66,1.18,2.89,2.83,3.58,4.78l19.88,55.97Z"/>
    <path d="M237.95,755.07l-1.23-.15c-4.08-.5-7.65-.98-10.94-1.45-51.02-7.33-91.66-20.73-107.06-27.18l-.09.2-26.47-15.28.57-.95c3.03-5.09,9.91-15.29,21.89-26.3l.61-.56.7.43c3.33,2.04,6.84,4.04,10.43,5.97,27.76,14.86,65.01,27.28,110.71,36.91l.87.18v28.18ZM118.03,723.62l.55.24c14.47,6.23,55.57,19.98,107.51,27.45h0c2.93.42,6.11.85,9.66,1.29v-23.93c-45.5-9.65-82.65-22.08-110.42-36.94-3.38-1.81-6.68-3.69-9.84-5.6-10.71,9.96-17.15,19.16-20.32,24.3l22.85,13.19Z"/>
    <path d="M317.14,307.32h-12.93l.1-40.31,12.83-22.23v62.55ZM306.4,305.13h8.55v-52.2l-8.46,14.66-.09,37.54Z"/>
    <path d="M80.05,704.22l-12.8-7.39.02-.66c.39-10.57,1.32-21.68,2.76-33.02.69-5.44,1.69-11.4,2.96-17.73l.57-2.84,1.63,2.81c.16.29.33.57.5.86,6.01,9.97,14.94,19.49,26.56,28.29l1.02.77-.92.89c-11.1,10.69-17.96,20.63-21.76,27.08l-.55.93ZM69.49,695.59l9.78,5.65c3.85-6.38,10.42-15.7,20.66-25.72-10.87-8.38-19.38-17.42-25.33-26.88-1,5.24-1.81,10.21-2.39,14.79-1.41,11.04-2.32,21.86-2.72,32.17Z"/>
    <path d="M237.95,920.01l-1.24-.16c-47.58-6.28-86.97-19.55-117.06-39.44-21.1-13.94-38.23-31.5-50.92-52.19-7.69-12.53-13.96-26.63-18.64-41.91l-.25-.83,12.74-7.35.41,1.31c7.1,22.93,18.12,43.16,32.75,60.12h0c30.68,35.55,78.21,58.15,141.28,67.19l.94.13v13.13ZM52.44,786.51c4.6,14.78,10.7,28.43,18.15,40.58,12.52,20.41,29.43,37.74,50.26,51.5,29.56,19.53,68.21,32.63,114.91,38.93v-8.74c-63.14-9.2-110.81-32-141.69-67.79-14.55-16.86-25.58-36.91-32.77-59.6l-8.86,5.11Z"/>
    <path d="M290.17,307.32h-11.95v-57.57l10.88,18.84c.25.44.55.86.89,1.26l.26.31-.09,37.16ZM280.41,305.13h7.58l.08-34.18c-.32-.41-.61-.83-.86-1.27l-6.8-11.77v47.22Z"/>
    <path d="M237.95,860.59l-1.26-.19c-13.96-2.16-27.34-5.73-39.75-10.6-23.06-9.05-43.54-22.76-60.88-40.76-18.19-18.89-29.17-38.64-35.17-51.88l-.41-.9,22.81-13.18.48.17c16.76,6.03,51.97,17.17,99.45,24.04,4.44.64,9.07,1.25,13.76,1.82l.96.12v14.19c0,6.08,4.95,11.02,11.02,11.02h15.21v43.46h-15.21c-6.08,0-11.02,4.95-11.02,11.02v11.68ZM103.29,757.15c6.02,13.07,16.78,32.13,34.35,50.37,17.11,17.77,37.33,31.31,60.1,40.24,11.89,4.66,24.67,8.12,38.02,10.27v-9.12c0-7.28,5.93-13.21,13.21-13.21h13.03v-39.08h-13.03c-7.28,0-13.21-5.93-13.21-13.21v-12.25c-4.38-.53-8.69-1.11-12.85-1.71-47.21-6.83-82.36-17.88-99.39-23.98l-20.22,11.68Z"/>
    <path d="M354.54,920.44v-13.72l.91-.16c17.89-3.12,35.04-7.76,50.98-13.81,36-13.65,65.57-33.88,87.9-60.12,14.62-17.18,25.8-36.76,33.23-58.19l.43-1.25,20.76,11.99-.31.86c-15.57,43.16-47.61,78.71-92.65,102.79-28.54,15.26-63.11,26.12-99.99,31.43l-1.25.18ZM356.73,908.56v9.35c36.16-5.33,70.03-16.04,98.02-31.01,44.26-23.66,75.82-58.48,91.32-100.74l-16.89-9.75c-7.52,21.2-18.68,40.59-33.19,57.65-22.57,26.53-52.44,46.96-88.79,60.75h0c-15.8,5.99-32.77,10.62-50.47,13.76Z"/>
    <path d="M317.14,837.88h-14.22l.11-43.46h14.11v43.46ZM305.11,835.7h9.84v-39.08h-9.75l-.1,39.08Z"/>
    <path d="M331.18,616.8v-42.42l32.9-32.9.69.31c11.81,5.3,29.44,16.73,46.37,41.1l.53.76-32.75,31.71-47.74,1.44ZM333.37,575.28v39.26l44.64-1.34,30.8-29.83c-16.15-22.97-32.83-34.02-44.25-39.28l-31.19,31.19Z"/>
    <path d="M354.54,756.69v-67.84c0-6.08-4.95-11.02-11.02-11.02h-12.34v-46.99l47.21-1.42.27.15c.97.55,2.05.88,3.2.98l76.81,6.68c.57.05,1.15.04,1.72-.04l.44-.06.35.26c11.3,8.4,20.49,18,27.31,28.54,9.51,14.68,14.02,30.7,13.4,47.6l-.02.6-25.11,14.5c-.56.32-1.09.72-1.58,1.16l-.16.15-.21.07c-38.07,13.57-78.13,22.5-119.06,26.54l-1.2.12ZM333.37,675.64h10.16c7.28,0,13.21,5.93,13.21,13.21v65.42c40.27-4.07,79.66-12.89,117.13-26.23.56-.49,1.16-.93,1.8-1.3l24.06-13.89c1.09-37.24-24.09-61.9-39.51-73.45-.58.05-1.16.05-1.74,0l-76.81-6.68c-1.36-.12-2.64-.49-3.81-1.1l-44.49,1.34v42.68Z"/>
    <path d="M354.54,860.52v-11.61c0-6.08-4.95-11.02-11.02-11.02h-12.34v-43.46h12.34c6.08,0,11.02-4.95,11.02-11.02v-12.61l.99-.1c41.71-3.99,82.56-12.92,121.42-26.53l.47-.17,15.58,8.99-.38.89c-4.92,11.5-16.21,33.95-36.61,55.15-17.33,18-37.82,31.72-60.88,40.77-12.28,4.82-25.51,8.36-39.32,10.53l-1.26.2ZM333.37,835.7h10.16c7.28,0,13.21,5.93,13.21,13.21v9.05c13.2-2.16,25.84-5.59,37.6-10.2,22.77-8.93,42.99-22.47,60.1-40.25,19.65-20.41,30.75-42,35.79-53.6l-13.02-7.52c-38.57,13.47-79.09,22.35-120.47,26.39v10.62c0,7.28-5.93,13.21-13.21,13.21h-10.16v39.08Z"/>
    <path d="M237.95,892.71l-1.26-.19c-58.43-8.73-102.28-29.63-130.34-62.13-14.08-16.32-24.52-36.06-31.02-58.67l-.24-.82,13.12-7.57.5,1.09c6.3,13.62,17.78,34.01,36.7,53.81,18.74,19.62,40.92,34.58,65.93,44.46,14.21,5.62,29.57,9.63,45.65,11.94l.94.13v17.96ZM77.68,771.94c6.42,21.96,16.63,41.14,30.33,57.02,27.5,31.86,70.48,52.45,127.75,61.21v-13.52c-15.92-2.35-31.12-6.36-45.21-11.93-25.3-10-47.75-25.14-66.71-44.99-18.63-19.5-30.13-39.57-36.6-53.32l-9.57,5.52Z"/>
    <path d="M354.54,892.47v-17.77l.94-.14c15.93-2.31,31.15-6.31,45.24-11.88h0c25.01-9.89,47.19-24.85,65.93-44.46,20.06-21,31.82-42.6,38.15-57.02l.49-1.12,10.25,5.92-.28.84c-6.85,21.01-17.49,40.09-31.62,56.69-20.78,24.42-48.43,43.29-82.19,56.09-14.26,5.41-29.6,9.65-45.61,12.6l-1.29.24ZM356.73,876.59v13.25c15.41-2.92,30.19-7.04,43.94-12.25,33.41-12.67,60.76-31.33,81.3-55.46,13.76-16.17,24.16-34.7,30.93-55.11l-6.6-3.81c-6.51,14.56-18.3,35.84-38.07,56.54-18.96,19.85-41.4,34.98-66.71,44.99h0c-13.96,5.52-29.03,9.51-44.79,11.87Z"/>
    <path d="M421.89,573.76l-.74-1.03c-16.77-23.38-34.43-35.53-46.28-41.61l-.83-.43.29-.89c1.11-3.39.24-7.06-2.27-9.58l-40.87-40.87v-55.44h12.34c3.44,0,6.63-1.57,8.73-4.3l.71-.92.88.76c7.66,6.66,15,14.21,21.82,22.45,19.07,23.05,43.68,63.46,52.6,125.04l.08.55-6.46,6.25ZM376.66,529.58c11.88,6.22,29.09,18.29,45.53,40.84l3.83-3.71c-8.92-60.77-33.21-100.64-52.04-123.41-6.49-7.85-13.46-15.07-20.73-21.46-2.5,2.72-5.98,4.26-9.72,4.26h-10.16v52.34l40.23,40.23c2.88,2.88,4.01,6.99,3.06,10.91Z"/>
    <path d="M237.95,712.55l-1.32-.29c-45.66-9.84-82.14-22.43-108.43-37.42l-1.48-.84,1.38-.99c41.55-29.96,96.32-38.33,134.94-40.07l1.14-.05v44.95h-15.21c-6.08,0-11.02,4.95-11.02,11.02v23.7ZM130.77,673.79c25.72,14.37,61.02,26.49,104.99,36.05v-20.99c0-7.28,5.93-13.21,13.21-13.21h13.03v-40.47c-37.83,1.83-90.7,10.07-131.22,38.62Z"/>
    <path d="M289.27,677.83h-11.05v-45.4l11.16-.34-.11,45.73ZM280.41,675.64h6.68l.1-41.29-6.78.2v41.09Z"/>
    <path d="M288.88,837.88h-10.66v-43.46h10.76l-.11,43.46ZM280.41,835.7h6.29l.09-39.08h-6.38v39.08Z"/>
    <path d="M317.14,465.31l-13.28-13.28.07-28.11h13.22v41.4ZM306.05,451.13l8.91,8.91v-33.93h-8.85l-.06,25.02Z"/>
    <path d="M290.51,167.9h-12.28v-38.03h12.38l-.09,38.03ZM280.41,165.72h7.91l.08-33.65h-8v33.65Z"/>
    <path d="M303.45,617.63l.04-15.56,13.65-13.65v28.8l-13.69.41ZM305.68,602.97l-.03,12.4,9.31-.28v-21.4l-9.28,9.28Z"/>
    <path d="M114.16,665.93l-.66-.48c-11.16-8.04-19.65-16.64-25.23-25.57h0c-8.68-13.88-7.62-24.35-7.09-27.23l.03-.11c3.97-13.58,8.69-27.48,14.03-41.31l.08-.2.15-.16c12.61-13.45,38.99-24.09,76.29-30.77,20.52-3.68,39.47-5.23,48.94-5.83l.49-.03,43.01,43.01v41.59l-1.05.04c-77.48,3.33-123.43,27.15-148.33,46.55l-.65.5ZM83.32,613.1c-.5,2.76-1.4,12.49,6.8,25.62h0c5.32,8.51,13.39,16.75,24,24.48,25.19-19.41,71.12-42.96,147.89-46.46v-38.59l-41.67-41.67c-9.58.62-28.13,2.18-48.2,5.77-36.69,6.58-62.6,16.93-74.94,29.96-5.28,13.69-9.95,27.45-13.88,40.89Z"/>
    <path d="M317.14,677.83h-13.83l.11-46.16,13.72-.41v46.57ZM305.5,675.64h9.45v-42.13l-9.35.28-.1,41.85Z"/>
    <path d="M317.14,167.9h-12.59l.09-38.03h12.5v38.03ZM306.74,165.72h8.21v-33.65h-8.13l-.08,33.65Z"/>
    <path d="M53.56,688.92l-15.92-9.19.04-.68c.32-5.04.82-10.14,1.47-15.16,6.04-46.41,32.29-127.33,75.65-195.34,15.71-24.64,32.75-46.22,50.64-64.14,22.49-22.53,46.37-39.26,70.98-49.74l1.52-.65v17.78l-.65.29c-51.77,22.87-89.73,71.12-112.47,107.57l-.93-.58.93.58c-39.56,63.43-63.02,136.97-68.72,181.7-1.11,8.73-1.93,17.41-2.45,25.79l-.11,1.76ZM39.91,678.52l11.68,6.75c.52-7.88,1.31-16,2.35-24.17,5.73-44.97,29.29-118.87,69.03-182.58,14.53-23.3,30.36-43.75,47.04-60.79,20.74-21.18,42.86-37.11,65.74-47.33v-13.04c-54.33,23.74-94.71,74.12-119.11,112.38-43.18,67.73-69.32,148.27-75.33,194.44-.62,4.75-1.09,9.57-1.41,14.34Z"/>
    <path d="M105.58,546.24l1.27-2.82c9.09-20.16,19.15-39.11,29.89-56.33h0c13.01-20.85,27.06-39.3,41.78-54.83,18.36-19.37,37.82-34.24,57.84-44.2l1.58-.79v25.61c0,6.08,4.95,11.02,11.02,11.02h15.21v52.56l-43.72,43.72-.41.03c-21.48,1.31-75.35,6.32-111.71,24.63l-2.76,1.39ZM138.6,488.25c-10.2,16.35-19.78,34.27-28.5,53.3,36.39-17.28,88.06-22.17,109.4-23.49l42.49-42.49v-49.47h-13.03c-7.28,0-13.21-5.93-13.21-13.21v-22.07c-44.12,22.57-77.15,65.34-97.16,97.43h0Z"/>
    <path d="M278.22,462.44v-38.53h11.66l-.07,26.93-11.6,11.6ZM280.41,426.1v31.06l7.23-7.23.06-23.83h-7.28Z"/>
    <path d="M278.22,618.39v-27.1l11.23,11.23-.04,15.53-11.19.34ZM280.41,596.57v19.57l6.82-.21.03-12.51-6.85-6.85Z"/>
    <path d="M278.22,634.62v-18.42l11.2-.34-.04,18.42-11.15.34ZM280.41,618.32v14.04l6.78-.2.03-14.05-6.82.2Z"/>
    <path d="M128.81,675.19l-.61-.35c-5.3-3.02-10.24-6.18-14.7-9.39l-1.18-.85,1.15-.9c25.15-19.59,71.52-43.65,149.58-47.01l1.14-.05v18.43l-1.04.05c-38.33,1.73-92.65,10.02-133.76,39.66l-.57.41ZM115.97,664.53c3.9,2.75,8.17,5.46,12.7,8.07,41.1-29.36,94.94-37.77,133.33-39.61v-14.05c-75.6,3.46-121,26.47-146.03,45.6Z"/>
    <path d="M94.06,712.3l-15.91-9.18.56-.95c3.87-6.57,10.85-16.68,22.12-27.54l.67-.65.75.56c4.18,3.16,8.78,6.29,13.68,9.29l1.24.76-1.07.98c-11.78,10.83-18.52,20.82-21.49,25.81l-.55.93ZM81.17,702.33l12.13,7c3.17-5.17,9.61-14.39,20.28-24.4-4.21-2.62-8.2-5.34-11.88-8.09-10.19,9.94-16.71,19.17-20.52,25.48Z"/>
    <path d="M331.18,633.03v-18.42l50.07-1.51-4.16,4.03c-1.82,1.76-2.65,4.09-2.33,6.56.32,2.48,1.77,4.68,3.89,5.87l3.41,1.93-50.89,1.53ZM333.37,616.73v14.04l41.77-1.26c-1.37-1.51-2.28-3.45-2.55-5.54-.4-3.13.68-6.19,2.98-8.41l.11-.1-42.31,1.27Z"/>
    <path d="M303.41,633.86l.04-18.42,13.68-.41v18.42l-13.72.41ZM305.64,617.56l-.03,14.05,9.34-.28v-14.05l-9.31.28Z"/>
    <path d="M499.63,715.44l.07-1.98c1.39-37.86-24.36-62.81-39.83-74.31l-2.17-1.61,2.68-.35c2.33-.3,4.39-1.64,5.64-3.68,1.24-2.02,1.49-4.46.69-6.69l-2.56-7.2,2.79,1.93c7.03,4.86,13.56,10.29,19.41,16.14,19.09,19.09,30.02,42.07,31.61,66.46l.04.68-18.38,10.61ZM462.99,638.76c10.47,8.07,19.04,17.2,25.5,27.18,9.14,14.12,13.66,29.46,13.45,45.64l13.8-7.97c-1.71-23.6-12.39-45.85-30.92-64.38-4.97-4.97-10.44-9.64-16.3-13.9l.26.75c1.02,2.86.69,5.99-.89,8.57-1.17,1.9-2.89,3.33-4.9,4.12Z"/>
    <path d="M280.41,307.32h-18.41v-85.68l18.41,31.89v53.78ZM264.18,305.13h14.04v-51.01l-14.04-24.32v75.33Z"/>
    <path d="M280.41,167.9h-18.41v-38.03h18.41v38.03ZM264.18,165.72h14.04v-33.65h-14.04v33.65Z"/>
    <path d="M262,478.67v-54.75h18.41v36.34l-18.41,18.41ZM264.18,426.1v47.28l14.04-14.04v-33.25h-14.04Z"/>
    <path d="M280.41,837.88h-18.41v-43.46h18.41v43.46ZM264.18,835.7h14.04v-39.08h-14.04v39.08Z"/>
    <path d="M280.41,677.83h-18.41v-102.77l18.41,18.41v84.35ZM264.18,675.64h14.04v-81.26l-14.04-14.04v95.3Z"/>
    <path d="M354.54,772.99v-18.5l.99-.1c40.75-4.02,80.64-12.91,118.54-26.42l5.04-1.8-3.93,3.63c-1.99,1.83-2.99,4.56-2.69,7.3.31,2.74,1.86,5.12,4.27,6.5l3.17,1.83-2.25.79c-39.02,13.67-80.05,22.64-121.93,26.65l-1.2.11ZM356.73,756.48v14.11c40.51-3.97,80.2-12.6,118.03-25.66-2.5-1.78-4.1-4.49-4.44-7.58-.24-2.13.16-4.27,1.1-6.13-36.75,12.8-75.31,21.29-114.69,25.25Z"/>
    <path d="M237.95,771.42l-1.22-.15c-4.7-.56-9.35-1.18-13.81-1.82-47.66-6.9-83.03-18.09-99.87-24.15l-2.19-.79,2-1.18c2.59-1.53,4.12-4.24,4.11-7.24-.01-3.01-1.58-5.7-4.18-7.2l-6.04-3.49.85-1.97,1.01.43c14.47,6.23,55.57,19.98,107.51,27.45,3.27.47,6.83.94,10.89,1.44l.96.12v18.55ZM125.71,743.93c17.45,6.16,51.79,16.74,97.51,23.36,4.06.59,8.27,1.15,12.54,1.67v-14.15c-3.68-.46-6.95-.9-9.98-1.33-43.78-6.29-79.93-17.05-99.03-24.05,1.52,1.84,2.38,4.16,2.39,6.65.02,3.06-1.24,5.87-3.44,7.86Z"/>
    <path d="M237.95,876.97l-1.25-.18c-16.26-2.33-31.78-6.39-46.15-12.07-25.3-10-47.75-25.14-66.71-44.99-19.12-20.02-30.73-40.63-37.1-54.4l-.42-.91,16.06-9.27.5,1.1c5.94,13.09,16.79,32.6,34.76,51.27h0c17.11,17.77,37.33,31.31,60.1,40.24,12.26,4.81,25.47,8.33,39.28,10.47l.93.14v18.59ZM89.15,765.31c6.39,13.61,17.78,33.54,36.28,52.91,18.74,19.62,40.92,34.58,65.93,44.46,13.84,5.47,28.77,9.42,44.41,11.76v-14.19c-13.63-2.17-26.69-5.69-38.82-10.45-23.06-9.05-43.54-22.76-60.88-40.77h0c-17.69-18.37-28.56-37.56-34.67-50.79l-12.24,7.07Z"/>
    <path d="M354.54,876.91v-18.6l.92-.14c13.66-2.14,26.73-5.64,38.86-10.4h0c22.77-8.93,42.99-22.47,60.1-40.25,20.16-20.94,31.32-43.13,36.18-54.49l.48-1.13,16.09,9.29-.39.9c-6.4,14.58-18.28,36.42-38.57,57.65-18.96,19.85-41.4,34.98-66.71,44.99-14.24,5.63-29.62,9.67-45.73,12.01l-1.25.18ZM356.73,860.18v14.2c15.48-2.34,30.27-6.27,43.99-11.69,25.01-9.89,47.19-24.85,65.93-44.46,19.65-20.57,31.33-41.72,37.75-56.12l-12.26-7.08c-5.16,11.8-16.37,33.5-36.12,54.02-17.33,18-37.82,31.72-60.88,40.77-12,4.71-24.92,8.2-38.4,10.38Z"/>
    <path d="M306.39,307.32h-18.41l.1-39.72,1.92,2.25c1.72,2.01,4.34,3.07,7.02,2.82,2.69-.25,5.01-1.74,6.37-4.09l3.11-5.39-.11,44.12ZM290.17,305.13h14.04l.08-34.02c-1.75,2.14-4.25,3.48-7.08,3.74-2.5.23-4.97-.44-6.96-1.84l-.08,32.12Z"/>
    <path d="M306.04,454.21l-3.15-3.15c-3.67-3.66-9.63-3.66-13.29,0l-1.97,1.97.07-29.12h18.41l-.07,30.3ZM296.25,446.13c2.72,0,5.44.95,7.62,2.85l.06-22.88h-14.04l-.05,21.96c1.94-1.29,4.18-1.93,6.42-1.93Z"/>
    <path d="M306.73,167.9h-18.41l.09-38.03h18.41l-.09,38.03ZM290.51,165.72h14.04l.08-33.65h-14.04l-.08,33.65Z"/>
    <path d="M305.11,837.88h-18.41l.11-43.46h18.41l-.11,43.46ZM288.89,835.7h14.04l.1-39.08h-14.04l-.09,39.08Z"/>
    <path d="M305.5,677.83h-18.41l.19-77.49,2.33,2.33c1.78,1.78,4.14,2.75,6.65,2.75s4.87-.98,6.65-2.75l2.79-2.79-.19,77.96ZM289.28,675.64h14.04l.17-70.58c-2.05,1.64-4.57,2.54-7.24,2.54-2.48,0-4.84-.77-6.8-2.2l-.17,70.24Z"/>
    <path d="M333.37,307.32h-18.41v-58.76l18.41-31.89v90.65ZM317.14,305.13h14.04v-80.3l-14.04,24.32v55.98Z"/>
    <path d="M333.37,837.88h-18.41v-43.46h18.41v43.46ZM317.14,835.7h14.04v-39.08h-14.04v39.08Z"/>
    <path d="M333.37,481.54l-18.41-18.41v-39.21h18.41v57.62ZM317.14,462.22l14.04,14.04v-50.15h-14.04v36.12Z"/>
    <path d="M333.37,677.83h-18.41v-87.23l18.41-18.41v105.64ZM317.14,675.64h14.04v-98.17l-14.04,14.04v84.13Z"/>
    <path d="M333.37,167.9h-18.41v-38.03h18.41v38.03ZM317.14,165.72h14.04v-33.65h-14.04v33.65Z"/>
    <path d="M426.4,569.38l-.31-2.12c-8.85-61.08-33.23-101.12-52.12-123.96h0c-6.74-8.15-14-15.62-21.57-22.2l-.78-.68.63-.82c1.5-1.94,2.29-4.27,2.29-6.72v-13.76l1.76,1.35c7.55,5.8,19.1,15.78,31.27,30.37,20.19,24.2,46.34,66.5,56.27,130.6l.37,2.4-2.04-1.31c-3.09-1.98-7.07-1.59-9.7.95l-6.07,5.88ZM354.59,420.11c7.39,6.5,14.48,13.83,21.07,21.8h0c18.85,22.79,43.11,62.53,52.29,122.93l3.01-2.91c2.81-2.72,6.84-3.52,10.4-2.22-10.09-62.44-35.67-103.73-55.46-127.45-11.13-13.34-21.73-22.78-29.16-28.67v9.3c0,2.6-.74,5.07-2.15,7.22Z"/>
    <path d="M410.07,585.19l-.73-1.06c-16.65-23.96-33.91-35.17-45.47-40.35l-1.45-.65,9.62-9.62c1.04-1.04,1.81-2.29,2.27-3.71l.4-1.22,1.14.58c12.07,6.19,30.04,18.55,47.06,42.28l.55.77-13.4,12.97ZM366.2,542.45c11.59,5.48,28.16,16.69,44.2,39.39l10.2-9.87c-16.11-22.19-32.96-34.11-44.66-40.29-.57,1.26-1.36,2.4-2.34,3.38l-7.39,7.39Z"/>
    <path d="M93.21,576.46l2.02-5.23c3.62-9.38,7.53-18.74,11.62-27.8l.16-.35.35-.17c36.72-18.49,90.95-23.54,112.56-24.86l2.88-.18-2.35,2.35c-3.66,3.66-3.66,9.63,0,13.29l2.79,2.79-2.42.15c-9.42.6-28.28,2.15-48.69,5.8h0c-36.84,6.6-62.8,17.01-75.09,30.11l-3.84,4.09ZM108.68,544.68c-3.35,7.43-6.57,15.06-9.62,22.74,13.68-11.82,38.63-21.21,72.68-27.31,18.93-3.39,36.52-4.98,46.57-5.68-3.44-3.98-3.71-9.77-.83-14.04-22.88,1.54-73.82,6.81-108.8,24.29Z"/>
    <path d="M237.95,729.13l-1.32-.28c-45.9-9.68-83.34-22.17-111.29-37.12-3.63-1.94-7.18-3.97-10.54-6.03-4.96-3.03-9.62-6.2-13.86-9.41-11.84-8.97-20.96-18.69-27.11-28.9-.18-.3-.36-.6-.53-.9l-.38-.66.08-.41c2.07-10.27,4.82-21.33,8.2-32.87l2.13.51c-.49,2.68-1.47,12.46,6.79,25.67,5.43,8.69,13.73,17.09,24.66,24.96,4.4,3.17,9.28,6.28,14.51,9.27h0c26.09,14.88,62.36,27.39,107.8,37.18l.86.19v18.82ZM75.23,645.44c.16.27.31.54.48.81,6.01,9.97,14.94,19.49,26.56,28.29,4.18,3.16,8.78,6.29,13.68,9.29,3.33,2.04,6.84,4.04,10.43,5.97,27.5,14.72,64.29,27.04,109.39,36.63v-14.35c-45.26-9.81-81.44-22.33-107.56-37.23-5.3-3.02-10.24-6.18-14.7-9.39-11.16-8.04-19.65-16.64-25.23-25.57-4.71-7.54-6.55-14.07-7.17-18.93-2.33,8.53-4.3,16.74-5.87,24.49Z"/>
    <path d="M20.95,688.55l.32-6.51c.33-6.74.93-13.55,1.81-20.25,6.48-49.74,33.12-131.48,78.06-201.97,17.21-26.99,35.99-50.49,55.83-69.84,25.05-24.44,51.8-42.22,79.5-52.86l1.49-.57v19.85l-.67.28c-55.09,23.46-96.01,74.42-120.63,113.04-43.18,67.73-69.32,148.27-75.33,194.44-.65,4.97-1.14,10.02-1.46,15.02l-.11,1.76-4.43-2.56c-2.13-1.23-4.58-1.47-6.88-.67-2.32.8-4.17,2.55-5.07,4.79l-2.42,6.05ZM235.76,339.75c-61.18,24.1-105.94,79.14-132.79,121.26-44.76,70.2-71.29,151.57-77.74,201.07-.69,5.32-1.22,10.72-1.56,16.09,1.12-1.12,2.5-1.99,4.05-2.52,2.91-1.01,6-.71,8.69.85l1.39.8c.32-4.47.78-8.97,1.35-13.4,6.04-46.41,32.29-127.33,75.65-195.34,15.71-24.64,32.75-46.22,50.64-64.14,22.29-22.32,45.94-38.96,70.31-49.45v-15.21Z"/>
    <path d="M354.54,936.93v-18.7l.94-.13c36.63-5.27,70.96-16.05,99.27-31.19h0c44.56-23.82,76.25-58.96,91.63-101.6l.44-1.23,16.2,9.36-.33.87c-17.26,45.72-51.59,83.36-99.27,108.85-31.64,16.91-67.86,28.23-107.65,33.62l-1.24.17ZM356.73,920.12v14.3c39.05-5.42,74.6-16.6,105.67-33.21,46.9-25.08,80.75-62,97.92-106.82l-12.33-7.12c-15.73,42.61-47.59,77.71-92.21,101.56-28.29,15.13-62.53,25.94-99.06,31.29Z"/>
    <path d="M237.95,936.39l-1.23-.16c-53.49-6.79-97.56-22.15-131-45.68-33.49-23.56-57.05-55.82-70.04-95.89l-.27-.84,16.38-9.45.4,1.31c4.62,15.1,10.82,29.03,18.41,41.41,12.52,20.41,29.43,37.74,50.26,51.5h0c29.82,19.7,68.89,32.86,116.14,39.09l.95.13v18.58ZM38.03,794.83c25.85,78.63,92.37,125.41,197.73,139.07v-14.18c-47.16-6.33-86.22-19.55-116.11-39.31h0c-21.1-13.94-38.23-31.5-50.92-52.19-7.47-12.17-13.6-25.83-18.23-40.6l-12.46,7.2Z"/>
    <path d="M552.71,684.79l-.22-1.61c-1.02-7.49-2.28-15.28-3.75-23.16-13.72-73.42-46.21-152.15-86.93-210.62-22.46-32.25-59.19-74.85-106.6-94.61l-.67-.28v-19.75l1.47.55c43.69,16.25,84.37,51.1,120.9,103.57,42.13,60.5,75.75,141.9,89.91,217.76,1.22,6.55,2.31,13.05,3.24,19.3l.2,1.36-1.37-.11c-1.73-.14-3.46.25-5.01,1.14l-11.19,6.46ZM356.73,353.06c20.92,8.83,41.5,22.72,61.18,41.29,15.92,15.02,31.29,33.12,45.69,53.8,40.88,58.71,73.51,137.76,87.28,211.46,1.37,7.35,2.56,14.63,3.55,21.66l8.37-4.83c1.53-.88,3.21-1.38,4.92-1.45-.88-5.83-1.9-11.86-3.03-17.95-14.12-75.56-47.6-156.65-89.56-216.91-35.87-51.51-75.69-85.88-118.4-102.21v15.14Z"/>
    <path d="M354.54,908.94v-18.7l.9-.17c15.88-2.93,31.1-7.13,45.23-12.49h0c33.41-12.67,60.76-31.33,81.3-55.46,13.95-16.39,24.45-35.21,31.21-55.95l.42-1.28,16.32,9.42-.3.85c-7.52,21.69-18.83,41.5-33.63,58.89-22.57,26.53-52.44,46.96-88.79,60.75-16.07,6.09-33.35,10.77-51.38,13.92l-1.28.22ZM356.73,892.06v14.28c17.43-3.12,34.14-7.68,49.69-13.58,36-13.65,65.57-33.88,87.9-60.12,14.43-16.95,25.5-36.24,32.93-57.34l-12.42-7.17c-6.86,20.51-17.36,39.14-31.2,55.41-20.78,24.42-48.43,43.29-82.19,56.09h0c-13.99,5.31-29.03,9.49-44.72,12.43Z"/>
    <path d="M237.95,909.09l-1.25-.18c-63.6-9.11-111.59-31.96-142.63-67.92-14.83-17.19-26-37.68-33.18-60.9l-.26-.83,16.43-9.48.39,1.34c6.41,22.3,16.69,41.77,30.57,57.84,27.7,32.1,71.1,52.75,129,61.4l.93.14v18.59ZM63.24,780.27c7.11,22.59,18.03,42.54,32.49,59.29,30.48,35.31,77.58,57.85,140.03,67v-14.18c-57.97-8.81-101.5-29.66-129.4-61.99-13.8-16-24.1-35.28-30.62-57.33l-12.49,7.21Z"/>
    <path d="M69.4,698.06l-17.95-10.37.04-.68c.51-8.43,1.34-17.15,2.46-25.93,5.73-44.97,29.29-118.87,69.03-182.58,14.53-23.3,30.36-43.75,47.04-60.79,20.94-21.39,43.28-37.41,66.4-47.62l1.54-.68v20.31l-.61.3c-44.92,22.35-78.49,65.75-98.74,98.23-10.69,17.14-20.7,36-29.75,56.07-4.07,9.03-7.97,18.35-11.57,27.69-5.32,13.78-10.02,27.62-13.97,41.14-3.36,11.48-6.1,22.48-8.15,32.69-1.26,6.28-2.25,12.19-2.94,17.57-1.44,11.28-2.36,22.32-2.75,32.83l-.07,1.82ZM53.71,686.48l13.64,7.88c.42-10.03,1.33-20.52,2.69-31.21.69-5.44,1.69-11.4,2.96-17.73h0c2.07-10.27,4.82-21.33,8.2-32.87,3.97-13.58,8.69-27.48,14.03-41.31,3.62-9.38,7.53-18.74,11.62-27.8,9.09-20.16,19.15-39.11,29.89-56.33,13.01-20.85,27.06-39.3,41.78-54.83,18.18-19.17,37.43-33.94,57.23-43.9v-15.59c-50.98,23.14-88.42,70.79-110.93,106.88-39.56,63.43-63.02,136.97-68.72,181.7-1.08,8.5-1.89,16.94-2.4,25.11Z"/>
    <path d="M522.36,702.31l-.04-1.85c-.29-13.15-1.73-26.86-4.27-40.76-12.09-66.16-40.73-137.1-76.62-189.77-26.54-38.96-55.57-66.43-86.28-81.62l-.61-.3v-20.22l1.53.66c36.29,15.76,70.12,46.42,100.58,91.11,37.26,54.69,66.98,128.27,79.51,196.83,2.15,11.78,3.57,23.49,4.22,34.82l.04.67-18.06,10.43ZM356.73,386.65c30.82,15.43,59.92,43.03,86.51,82.05,36.05,52.91,64.82,124.17,76.96,190.61,2.44,13.37,3.87,26.57,4.26,39.27l13.7-7.91c-.66-11.03-2.06-22.42-4.15-33.88-12.48-68.27-42.07-141.54-79.17-195.99-29.78-43.72-62.79-73.88-98.11-89.67v15.52Z"/>
    <path d="M346.96,132.06h-101.43c-3.76,0-7.12-1.94-9-5.2-1.88-3.25-1.88-7.14,0-10.4l50.71-87.84c1.88-3.25,5.24-5.2,9-5.2h0c3.76,0,7.12,1.94,9,5.2l50.71,87.84c1.88,3.25,1.88,7.14,0,10.4-1.88,3.25-5.24,5.2-9,5.2ZM296.25,25.62c-2.97,0-5.62,1.53-7.11,4.1l-50.71,87.84c-1.48,2.57-1.48,5.64,0,8.21,1.48,2.57,4.14,4.1,7.11,4.1h101.43c2.97,0,5.62-1.53,7.11-4.1,1.48-2.57,1.48-5.64,0-8.21l-50.71-87.84c-1.48-2.57-4.14-4.1-7.11-4.1Z"/>
    <path d="M296.25,274.9c-3.05,0-5.95-1.32-7.92-3.63-.43-.5-.81-1.03-1.12-1.59l-50.99-88.31c-1.89-3.27-1.89-7.17,0-10.44,1.89-3.27,5.27-5.22,9.04-5.22h101.97c3.77,0,7.15,1.95,9.04,5.22,1.89,3.27,1.89,7.17,0,10.44l-50.99,88.31c-1.72,2.98-4.66,4.86-8.07,5.17-.32.03-.64.04-.96.04ZM245.26,167.9c-2.98,0-5.65,1.54-7.14,4.12-1.49,2.58-1.49,5.67,0,8.25l50.99,88.31c.25.44.55.86.89,1.26,1.72,2.01,4.34,3.07,7.02,2.82,2.69-.25,5.01-1.74,6.37-4.09l50.99-88.31c1.49-2.58,1.49-5.67,0-8.25-1.49-2.58-4.16-4.12-7.14-4.12h-101.97Z"/>
    <path d="M343.52,426.1h-94.55c-7.28,0-13.21-5.93-13.21-13.21v-94.55c0-7.28,5.93-13.21,13.21-13.21h94.55c7.28,0,13.21,5.93,13.21,13.21v94.55c0,2.94-.95,5.73-2.74,8.06-2.52,3.28-6.34,5.15-10.47,5.15ZM248.97,307.32c-6.08,0-11.02,4.95-11.02,11.02v94.55c0,6.08,4.95,11.02,11.02,11.02h94.55c3.44,0,6.63-1.57,8.73-4.3,1.5-1.94,2.29-4.27,2.29-6.72v-94.55c0-6.08-4.95-11.02-11.02-11.02h-94.55Z"/>
    <path d="M296.25,607.61c-3.09,0-6-1.21-8.19-3.39l-25.74-25.74-43.42-43.42c-4.52-4.52-4.52-11.87,0-16.38l69.16-69.16c4.52-4.52,11.87-4.52,16.38,0l69.16,69.16c3.1,3.1,4.18,7.63,2.81,11.81-.57,1.75-1.52,3.29-2.81,4.58l-69.16,69.16c-2.19,2.19-5.1,3.39-8.19,3.39ZM296.25,448.32c-2.41,0-4.81.92-6.65,2.75l-69.16,69.16c-3.66,3.66-3.66,9.63,0,13.29h0l69.16,69.16c1.78,1.78,4.14,2.75,6.65,2.75s4.87-.98,6.65-2.75l69.16-69.16c1.04-1.04,1.81-2.29,2.27-3.71,1.11-3.39.24-7.06-2.27-9.58l-69.16-69.16c-1.83-1.83-4.24-2.75-6.65-2.75Z"/>
    <path d="M343.52,796.61h-94.55c-7.28,0-13.21-5.93-13.21-13.21v-94.55c0-7.28,5.93-13.21,13.21-13.21h94.55c7.28,0,13.21,5.93,13.21,13.21v94.55c0,7.28-5.93,13.21-13.21,13.21ZM248.97,677.83c-6.08,0-11.02,4.95-11.02,11.02v94.55c0,6.08,4.95,11.02,11.02,11.02h94.55c6.08,0,11.02-4.95,11.02-11.02v-94.55c0-6.08-4.95-11.02-11.02-11.02h-94.55Z"/>
    <path d="M343.52,956.67h-94.55c-7.28,0-13.21-5.93-13.21-13.21v-94.55c0-7.28,5.93-13.21,13.21-13.21h94.55c7.28,0,13.21,5.93,13.21,13.21v94.55c0,7.28-5.93,13.21-13.21,13.21ZM248.97,837.88c-6.08,0-11.02,4.95-11.02,11.02v94.55c0,6.08,4.95,11.02,11.02,11.02h94.55c6.08,0,11.02-4.95,11.02-11.02v-94.55c0-6.08-4.95-11.02-11.02-11.02h-94.55Z"/>
    <path d="M31.14,797.19c-1.81,0-3.63-.48-5.28-1.43-3.3-1.91-5.28-5.32-5.28-9.14v-100.98c0-1.37.25-2.69.76-3.94,1.13-2.83,3.46-5.03,6.38-6.04,2.91-1.01,6-.71,8.69.85l87.45,50.49c3.28,1.9,5.26,5.29,5.28,9.08.02,3.79-1.92,7.21-5.18,9.14l-.09.05-87.46,50.5c-1.65.95-3.46,1.43-5.28,1.43ZM31.15,677.25c-.91,0-1.82.15-2.72.46-2.32.8-4.17,2.55-5.07,4.79-.4.99-.6,2.05-.6,3.13v100.98c0,3.02,1.56,5.73,4.18,7.25,2.62,1.51,5.75,1.51,8.37,0l87.53-50.54c2.59-1.53,4.12-4.24,4.11-7.24-.01-3.01-1.58-5.7-4.18-7.2l-87.45-50.49c-1.31-.76-2.73-1.14-4.17-1.14Z"/>
    <path d="M568.22,797.29c-1.86,0-3.72-.49-5.42-1.47l-87.14-50.31c-3.01-1.74-4.96-4.71-5.35-8.16-.38-3.43.88-6.85,3.38-9.15.6-.56,1.27-1.05,1.97-1.45l87.14-50.31c1.93-1.11,4.11-1.61,6.28-1.43,5.68.47,9.97,5.12,9.97,10.81v100.62c0,3.92-2.02,7.42-5.42,9.38-1.69.98-3.56,1.47-5.41,1.47ZM568.21,677.16c-1.5,0-2.98.4-4.31,1.17l-87.14,50.31c-.56.32-1.09.72-1.58,1.16-1.99,1.83-2.99,4.56-2.69,7.3.31,2.74,1.86,5.12,4.27,6.5l87.14,50.31c2.71,1.56,5.94,1.56,8.64,0,2.71-1.56,4.32-4.36,4.32-7.49v-100.62c0-4.54-3.42-8.25-7.96-8.63-.23-.02-.46-.03-.69-.03Z"/>
    <path d="M459.35,639.44c-.29,0-.58-.01-.87-.04l-76.81-6.68c-1.46-.13-2.84-.55-4.09-1.25-2.72-1.54-4.58-4.34-4.99-7.5-.4-3.13.68-6.19,2.98-8.41l55.39-53.63c3.36-3.25,8.46-3.75,12.4-1.22,1.87,1.2,3.25,2.95,4,5.06l21.42,60.31c1.02,2.86.69,5.99-.89,8.57-1.6,2.6-4.23,4.32-7.22,4.71-.44.06-.88.09-1.32.09ZM432.48,563.5l-55.39,53.63c-1.82,1.76-2.65,4.09-2.33,6.56.32,2.48,1.77,4.68,3.89,5.87.97.55,2.05.88,3.2.98l76.81,6.68c.57.05,1.14.04,1.72-.04,2.33-.3,4.39-1.64,5.64-3.68,1.24-2.02,1.49-4.46.69-6.69l-21.42-60.31c-.59-1.65-1.67-3.02-3.12-3.95-3.08-1.98-7.07-1.59-9.7.95Z"/>
  </g>
  <g>
    <g>
      <path d="M270.45,120.79c-.19-.01-.43,0-.7.04-1.46.24-2.22,1.31-2.38,2.44h.03c.33-.43.9-.79,1.66-.79,1.21,0,2.07.88,2.07,2.21,0,1.25-.85,2.41-2.28,2.41s-2.43-1.14-2.43-2.92c0-1.35.49-2.41,1.16-3.09.57-.56,1.33-.91,2.19-1.01.27-.04.51-.05.67-.05v.76ZM270.18,124.74c0-.98-.56-1.57-1.41-1.57-.56,0-1.08.35-1.33.84-.06.11-.11.24-.11.41.02,1.13.54,1.96,1.51,1.96.8,0,1.34-.66,1.34-1.64Z"/>
      <path d="M274.81,126.99v-1.87h-3.18v-.61l3.06-4.38h1v4.26h.96v.73h-.96v1.87h-.88ZM274.81,124.4v-2.29c0-.36.01-.72.03-1.08h-.03c-.21.4-.38.7-.57,1.01l-1.68,2.33v.02h2.25Z"/>
    </g>
    <g>
      <path d="M296.55,120.79c-.19-.01-.43,0-.7.04-1.46.24-2.22,1.31-2.38,2.44h.03c.33-.43.9-.79,1.66-.79,1.21,0,2.07.88,2.07,2.21,0,1.25-.85,2.41-2.28,2.41s-2.42-1.14-2.42-2.92c0-1.35.49-2.41,1.16-3.09.57-.56,1.33-.91,2.19-1.01.27-.04.51-.05.67-.05v.76ZM296.28,124.74c0-.98-.56-1.57-1.41-1.57-.56,0-1.08.35-1.33.84-.06.11-.11.24-.11.41.02,1.13.54,1.96,1.51,1.96.8,0,1.34-.66,1.34-1.64Z"/>
      <path d="M300.06,121h-.02l-1.19.64-.18-.71,1.5-.8h.79v6.85h-.9v-5.99Z"/>
    </g>
    <g>
      <path d="M322.65,120.79c-.19-.01-.43,0-.7.04-1.46.24-2.22,1.31-2.38,2.44h.03c.33-.43.9-.79,1.66-.79,1.21,0,2.07.88,2.07,2.21,0,1.25-.85,2.41-2.28,2.41s-2.42-1.14-2.42-2.92c0-1.35.49-2.41,1.16-3.09.57-.56,1.33-.91,2.19-1.01.27-.04.51-.05.67-.05v.76ZM322.38,124.74c0-.98-.56-1.57-1.41-1.57-.56,0-1.08.35-1.33.84-.06.11-.11.24-.11.41.02,1.13.54,1.96,1.51,1.96.8,0,1.34-.66,1.34-1.64Z"/>
      <path d="M324.37,125.92c.26.17.88.43,1.52.43,1.19,0,1.56-.76,1.55-1.33-.01-.96-.88-1.37-1.77-1.37h-.52v-.7h.52c.67,0,1.53-.35,1.53-1.16,0-.55-.35-1.03-1.2-1.03-.55,0-1.08.24-1.37.45l-.24-.67c.36-.26,1.05-.53,1.79-.53,1.35,0,1.96.8,1.96,1.63,0,.71-.42,1.31-1.26,1.61v.02c.84.17,1.53.8,1.53,1.76,0,1.1-.85,2.06-2.5,2.06-.77,0-1.44-.24-1.78-.46l.25-.72Z"/>
    </g>
    <g>
      <path d="M269.92,179.8v-1.87h-3.18v-.61l3.06-4.38h1v4.26h.96v.73h-.96v1.87h-.88ZM269.92,177.2v-2.29c0-.36.01-.72.03-1.08h-.03c-.21.4-.38.7-.57,1.01l-1.68,2.33v.02h2.25Z"/>
      <path d="M276.91,172.94v.61l-2.98,6.24h-.96l2.97-6.06v-.02h-3.35v-.77h4.32Z"/>
    </g>
    <g>
      <path d="M293.15,179.8v-.57l.73-.71c1.75-1.67,2.54-2.55,2.55-3.58,0-.7-.34-1.34-1.36-1.34-.62,0-1.14.32-1.46.58l-.29-.65c.47-.4,1.15-.7,1.94-.7,1.48,0,2.1,1.01,2.1,1.99,0,1.27-.92,2.29-2.36,3.68l-.55.51v.02h3.08v.77h-4.38Z"/>
      <path d="M301.43,179.8v-1.87h-3.18v-.61l3.06-4.38h1v4.26h.96v.73h-.96v1.87h-.88ZM301.43,177.2v-2.29c0-.36.01-.72.03-1.08h-.03c-.21.4-.38.7-.57,1.01l-1.68,2.33v.02h2.25Z"/>
    </g>
    <path d="M324.08,179.8v-1.87h-3.18v-.61l3.06-4.38h1v4.26h.96v.73h-.96v1.87h-.88ZM324.08,177.2v-2.29c0-.36.01-.72.03-1.08h-.03c-.21.4-.38.7-.57,1.01l-1.68,2.33v.02h2.25Z"/>
    <g>
      <path d="M270.29,220.62h-.02l-1.19.64-.18-.71,1.5-.8h.79v6.85h-.9v-5.99Z"/>
      <path d="M278.13,219.76v.61l-2.98,6.24h-.96l2.97-6.06v-.02h-3.35v-.77h4.32Z"/>
    </g>
    <g>
      <path d="M293.99,265.72v-1.87h-3.18v-.61l3.06-4.38h1v4.26h.96v.73h-.96v1.87h-.88ZM293.99,263.13v-2.29c0-.36.01-.72.03-1.08h-.03c-.21.4-.38.7-.57,1.01l-1.68,2.33v.02h2.25Z"/>
      <path d="M296.75,264.66c.26.17.88.43,1.52.43,1.19,0,1.56-.76,1.55-1.33-.01-.96-.88-1.37-1.77-1.37h-.52v-.7h.52c.67,0,1.53-.35,1.53-1.16,0-.55-.35-1.03-1.2-1.03-.55,0-1.08.24-1.37.45l-.24-.67c.36-.26,1.05-.53,1.79-.53,1.35,0,1.96.8,1.96,1.63,0,.71-.42,1.31-1.26,1.61v.02c.84.17,1.53.8,1.53,1.76,0,1.1-.85,2.06-2.5,2.06-.77,0-1.44-.24-1.78-.46l.25-.72Z"/>
    </g>
    <g>
      <path d="M318.53,220.62h-.02l-1.19.64-.18-.71,1.5-.8h.79v6.85h-.9v-5.99Z"/>
      <path d="M323.94,220.62h-.02l-1.19.64-.18-.71,1.5-.8h.79v6.85h-.9v-5.99Z"/>
    </g>
    <g>
      <path d="M269.51,313.54c-.19-.01-.43,0-.7.04-1.46.24-2.22,1.31-2.38,2.44h.03c.33-.43.9-.79,1.66-.79,1.21,0,2.07.88,2.07,2.21,0,1.25-.85,2.41-2.28,2.41s-2.43-1.14-2.43-2.92c0-1.35.49-2.41,1.16-3.09.57-.56,1.33-.91,2.19-1.01.27-.04.51-.05.67-.05v.76ZM269.25,317.5c0-.98-.56-1.57-1.41-1.57-.56,0-1.08.35-1.33.84-.06.1-.11.24-.11.41.02,1.13.54,1.96,1.51,1.96.8,0,1.34-.66,1.34-1.64Z"/>
      <path d="M271.01,319.74v-.57l.73-.71c1.75-1.67,2.54-2.55,2.55-3.58,0-.7-.34-1.34-1.36-1.34-.62,0-1.14.32-1.46.58l-.3-.65c.47-.4,1.15-.7,1.94-.7,1.48,0,2.1,1.01,2.1,1.99,0,1.27-.92,2.29-2.36,3.68l-.55.51v.02h3.08v.77h-4.38Z"/>
    </g>
    <g>
      <path d="M292.17,319.92v-.57l.73-.71c1.75-1.67,2.54-2.55,2.55-3.58,0-.7-.34-1.34-1.36-1.34-.62,0-1.14.32-1.46.58l-.3-.65c.47-.4,1.15-.7,1.94-.7,1.48,0,2.1,1.01,2.1,1.99,0,1.27-.92,2.29-2.36,3.68l-.55.51v.02h3.08v.77h-4.38Z"/>
      <path d="M297.8,318.86c.26.17.88.43,1.52.43,1.19,0,1.56-.76,1.55-1.33-.01-.96-.88-1.37-1.77-1.37h-.52v-.7h.52c.67,0,1.53-.35,1.53-1.16,0-.55-.35-1.03-1.2-1.03-.55,0-1.08.24-1.37.45l-.24-.67c.36-.26,1.05-.53,1.79-.53,1.35,0,1.96.8,1.96,1.63,0,.71-.42,1.31-1.26,1.61v.02c.84.17,1.53.8,1.53,1.76,0,1.1-.85,2.06-2.5,2.06-.77,0-1.44-.24-1.78-.46l.25-.72Z"/>
    </g>
    <g>
      <path d="M322.83,313.67h-2.62l-.26,1.76c.16-.02.31-.04.56-.04.53,0,1.05.12,1.48.37.54.31.98.9.98,1.76,0,1.34-1.06,2.34-2.55,2.34-.75,0-1.38-.21-1.71-.42l.23-.71c.28.17.84.38,1.47.38.88,0,1.62-.57,1.62-1.49-.01-.89-.6-1.52-1.97-1.52-.39,0-.7.04-.95.07l.44-3.29h3.28v.78Z"/>
      <path d="M328.06,313.54c-.19-.01-.43,0-.7.04-1.46.24-2.22,1.31-2.38,2.44h.03c.33-.43.9-.79,1.66-.79,1.21,0,2.07.88,2.07,2.21,0,1.25-.85,2.41-2.28,2.41s-2.43-1.14-2.43-2.92c0-1.35.49-2.41,1.16-3.09.57-.56,1.33-.91,2.19-1.01.27-.04.51-.05.67-.05v.76ZM327.79,317.5c0-.98-.56-1.57-1.41-1.57-.56,0-1.08.35-1.33.84-.06.1-.11.24-.11.41.02,1.13.54,1.96,1.51,1.96.8,0,1.34-.66,1.34-1.64Z"/>
    </g>
    <g>
      <path d="M341.11,347.33c.26.17.88.43,1.52.43,1.19,0,1.56-.76,1.55-1.33-.01-.96-.88-1.37-1.77-1.37h-.52v-.7h.52c.67,0,1.53-.35,1.53-1.16,0-.55-.35-1.03-1.2-1.03-.55,0-1.08.24-1.37.45l-.24-.67c.36-.26,1.05-.53,1.79-.53,1.35,0,1.96.8,1.96,1.63,0,.71-.42,1.31-1.26,1.61v.02c.84.17,1.53.8,1.53,1.76,0,1.1-.85,2.06-2.5,2.06-.77,0-1.44-.24-1.78-.46l.25-.72Z"/>
      <path d="M350.39,342.32h-2.62l-.26,1.76c.16-.02.31-.04.56-.04.53,0,1.05.12,1.48.37.54.31.98.9.98,1.76,0,1.34-1.06,2.34-2.55,2.34-.75,0-1.38-.21-1.71-.42l.23-.71c.28.17.84.38,1.47.38.88,0,1.62-.57,1.62-1.49-.01-.89-.6-1.52-1.97-1.52-.39,0-.7.04-.95.07l.44-3.29h3.28v.78Z"/>
    </g>
    <g>
      <path d="M342.9,376.07h-.02l-1.19.64-.18-.71,1.5-.8h.79v6.85h-.9v-5.99Z"/>
      <path d="M346.3,382.06v-.57l.73-.71c1.75-1.67,2.54-2.55,2.55-3.58,0-.7-.34-1.34-1.36-1.34-.62,0-1.14.32-1.46.58l-.3-.65c.47-.4,1.15-.7,1.94-.7,1.48,0,2.1,1.01,2.1,1.99,0,1.27-.92,2.29-2.36,3.68l-.55.51v.02h3.08v.77h-4.38Z"/>
    </g>
    <g>
      <path d="M343.76,410.45v-1.87h-3.18v-.61l3.06-4.38h1v4.26h.96v.73h-.96v1.87h-.88ZM343.76,407.86v-2.29c0-.36.01-.72.03-1.08h-.03c-.21.4-.38.7-.57,1.01l-1.68,2.33v.02h2.25Z"/>
      <path d="M350.39,404.38h-2.62l-.26,1.76c.16-.02.31-.04.56-.04.53,0,1.05.12,1.48.37.54.31.98.9.98,1.76,0,1.34-1.06,2.34-2.55,2.34-.75,0-1.38-.21-1.71-.42l.23-.71c.28.17.84.38,1.47.38.88,0,1.62-.57,1.62-1.49-.01-.89-.6-1.52-1.97-1.52-.39,0-.7.04-.95.07l.44-3.29h3.28v.78Z"/>
    </g>
    <g>
      <path d="M320.23,416.65c.26.17.88.43,1.52.43,1.19,0,1.56-.76,1.55-1.33-.01-.96-.88-1.37-1.77-1.37h-.52v-.7h.52c.67,0,1.53-.35,1.53-1.16,0-.55-.35-1.03-1.2-1.03-.55,0-1.08.24-1.37.45l-.24-.67c.36-.26,1.05-.53,1.79-.53,1.35,0,1.96.8,1.96,1.63,0,.71-.42,1.31-1.26,1.61v.02c.84.17,1.53.8,1.53,1.76,0,1.1-.85,2.06-2.5,2.06-.77,0-1.44-.24-1.78-.46l.25-.72Z"/>
      <path d="M325.63,416.65c.26.17.88.43,1.52.43,1.19,0,1.56-.76,1.55-1.33-.01-.96-.88-1.37-1.77-1.37h-.52v-.7h.52c.67,0,1.53-.35,1.53-1.16,0-.55-.35-1.03-1.2-1.03-.55,0-1.08.24-1.37.45l-.24-.67c.36-.26,1.05-.53,1.79-.53,1.35,0,1.96.8,1.96,1.63,0,.71-.42,1.31-1.27,1.61v.02c.84.17,1.53.8,1.53,1.76,0,1.1-.85,2.06-2.5,2.06-.77,0-1.44-.24-1.78-.46l.25-.72Z"/>
    </g>
    <path d="M294.33,415.97c0-.86.52-1.48,1.36-1.83v-.03c-.77-.36-1.1-.95-1.1-1.54,0-1.09.92-1.82,2.12-1.82,1.33,0,1.99.83,1.99,1.69,0,.58-.29,1.2-1.13,1.6v.03c.85.34,1.38.94,1.38,1.77,0,1.19-1.02,1.99-2.33,1.99-1.43,0-2.3-.85-2.3-1.86ZM298.02,415.93c0-.83-.58-1.23-1.51-1.5-.8.23-1.23.76-1.23,1.41-.03.7.5,1.31,1.37,1.31s1.37-.52,1.37-1.22ZM295.47,412.51c0,.69.52,1.05,1.31,1.27.59-.2,1.04-.62,1.04-1.24,0-.55-.33-1.12-1.16-1.12-.77,0-1.19.51-1.19,1.1Z"/>
    <g>
      <path d="M265.42,416.65c.26.17.88.43,1.52.43,1.19,0,1.56-.76,1.55-1.33-.01-.96-.88-1.37-1.77-1.37h-.52v-.7h.52c.67,0,1.53-.35,1.53-1.16,0-.55-.35-1.03-1.2-1.03-.55,0-1.08.24-1.37.45l-.24-.67c.36-.26,1.05-.53,1.79-.53,1.35,0,1.96.8,1.96,1.63,0,.71-.42,1.31-1.27,1.61v.02c.84.17,1.53.8,1.53,1.76,0,1.1-.85,2.06-2.5,2.06-.77,0-1.44-.24-1.78-.46l.25-.72Z"/>
      <path d="M272.62,411.73h-.02l-1.19.64-.18-.71,1.5-.8h.79v6.85h-.9v-5.99Z"/>
    </g>
    <g>
      <path d="M240.73,382.06v-.57l.73-.71c1.75-1.67,2.54-2.55,2.55-3.58,0-.7-.34-1.34-1.36-1.34-.62,0-1.14.32-1.46.58l-.3-.65c.47-.4,1.15-.7,1.94-.7,1.48,0,2.1,1.01,2.1,1.99,0,1.27-.92,2.29-2.36,3.68l-.55.51v.02h3.08v.77h-4.38Z"/>
      <path d="M250.69,378.56c0,2.33-.86,3.62-2.38,3.62-1.34,0-2.25-1.25-2.27-3.52,0-2.3.99-3.56,2.38-3.56s2.27,1.29,2.27,3.47ZM246.97,378.67c0,1.78.55,2.79,1.39,2.79.95,0,1.4-1.11,1.4-2.86s-.43-2.79-1.39-2.79c-.81,0-1.4.99-1.4,2.86Z"/>
    </g>
    <g>
      <path d="M241.83,342.4h-.02l-1.19.64-.18-.71,1.5-.8h.79v6.85h-.9v-5.99Z"/>
      <path d="M249.14,342.19c-.19-.01-.43,0-.7.04-1.46.24-2.22,1.31-2.38,2.44h.03c.33-.43.9-.79,1.66-.79,1.21,0,2.07.88,2.07,2.21,0,1.25-.85,2.41-2.28,2.41s-2.43-1.14-2.43-2.92c0-1.35.48-2.41,1.16-3.09.57-.56,1.33-.91,2.19-1.01.27-.04.51-.05.67-.05v.76ZM248.88,346.15c0-.98-.56-1.57-1.41-1.57-.56,0-1.08.35-1.33.84-.06.1-.11.24-.11.41.02,1.13.54,1.96,1.51,1.96.8,0,1.34-.66,1.34-1.64Z"/>
    </g>
    <path d="M295.06,456.51h-.02l-1.19.64-.18-.71,1.5-.8h.79v6.85h-.9v-5.99Z"/>
    <g>
      <path d="M318.53,480.63h-.02l-1.19.64-.18-.71,1.5-.8h.79v6.85h-.9v-5.99Z"/>
      <path d="M322.15,485.55c.26.17.88.43,1.52.43,1.19,0,1.56-.76,1.55-1.33-.01-.96-.88-1.37-1.77-1.37h-.52v-.7h.52c.67,0,1.53-.35,1.53-1.16,0-.55-.35-1.03-1.2-1.03-.55,0-1.08.24-1.37.45l-.24-.67c.36-.26,1.05-.53,1.79-.53,1.35,0,1.96.8,1.96,1.63,0,.71-.42,1.31-1.26,1.61v.02c.84.17,1.53.8,1.53,1.76,0,1.1-.85,2.06-2.5,2.06-.77,0-1.44-.24-1.78-.46l.25-.72Z"/>
    </g>
    <path d="M271.81,479.76v.61l-2.98,6.24h-.96l2.97-6.06v-.02h-3.35v-.77h4.32Z"/>
    <g>
      <path d="M224.52,524.17h-.02l-1.19.64-.18-.71,1.5-.8h.79v6.85h-.9v-5.99Z"/>
      <path d="M232.47,526.66c0,2.33-.86,3.62-2.38,3.62-1.34,0-2.25-1.25-2.27-3.52,0-2.3.99-3.56,2.38-3.56s2.27,1.29,2.27,3.47ZM228.75,526.76c0,1.78.55,2.79,1.39,2.79.95,0,1.4-1.11,1.4-2.86s-.43-2.79-1.39-2.79c-.81,0-1.4.99-1.4,2.86Z"/>
    </g>
    <g>
      <path d="M356.61,535.85v-.57l.73-.71c1.75-1.67,2.54-2.55,2.55-3.58,0-.7-.34-1.34-1.36-1.34-.62,0-1.14.32-1.46.58l-.3-.65c.47-.4,1.15-.7,1.94-.7,1.48,0,2.1,1.01,2.1,1.99,0,1.26-.92,2.29-2.36,3.68l-.55.51v.02h3.08v.77h-4.38Z"/>
      <path d="M366.11,529.78h-2.61l-.26,1.76c.16-.02.31-.04.56-.04.53,0,1.05.12,1.48.37.54.31.98.9.98,1.76,0,1.34-1.07,2.34-2.55,2.34-.75,0-1.38-.21-1.71-.42l.23-.71c.29.17.84.38,1.47.38.88,0,1.62-.57,1.62-1.49-.01-.89-.6-1.52-1.97-1.52-.39,0-.7.04-.95.07l.44-3.29h3.28v.78Z"/>
    </g>
    <g>
      <path d="M321.6,573.64v-1.87h-3.18v-.61l3.06-4.38h1v4.26h.96v.73h-.96v1.87h-.88ZM321.6,571.04v-2.29c0-.36.01-.72.03-1.08h-.03c-.21.4-.38.7-.57,1.01l-1.68,2.33v.02h2.25Z"/>
      <path d="M328.06,567.44c-.19-.01-.43,0-.7.04-1.46.24-2.22,1.31-2.38,2.44h.03c.33-.43.9-.79,1.66-.79,1.21,0,2.07.88,2.07,2.21,0,1.25-.85,2.42-2.28,2.42s-2.43-1.14-2.43-2.92c0-1.35.49-2.42,1.16-3.09.57-.56,1.33-.91,2.19-1.01.27-.04.51-.05.67-.05v.76ZM327.79,571.39c0-.98-.56-1.57-1.41-1.57-.56,0-1.08.35-1.33.84-.06.11-.11.24-.11.41.02,1.13.54,1.96,1.51,1.96.8,0,1.34-.66,1.34-1.64Z"/>
    </g>
    <path d="M295.02,593.42v-.57l.73-.71c1.75-1.67,2.54-2.55,2.55-3.58,0-.7-.34-1.34-1.36-1.34-.62,0-1.14.32-1.46.58l-.3-.65c.47-.4,1.15-.7,1.94-.7,1.48,0,2.1,1.01,2.1,1.99,0,1.26-.92,2.29-2.36,3.68l-.55.51v.02h3.08v.77h-4.38Z"/>
    <g>
      <path d="M267.61,567.83h-.02l-1.19.64-.18-.71,1.5-.8h.79v6.85h-.9v-5.99Z"/>
      <path d="M275.1,567.74h-2.61l-.26,1.76c.16-.02.31-.04.56-.04.53,0,1.05.12,1.48.37.54.31.98.9.98,1.76,0,1.34-1.07,2.34-2.55,2.34-.75,0-1.38-.21-1.71-.42l.23-.71c.29.17.84.38,1.47.38.88,0,1.62-.57,1.62-1.49-.01-.89-.6-1.52-1.97-1.52-.39,0-.7.04-.95.07l.44-3.29h3.28v.78Z"/>
    </g>
    <g>
      <path d="M433.08,573.64v-.57l.73-.71c1.75-1.67,2.54-2.55,2.55-3.58,0-.7-.34-1.34-1.36-1.34-.62,0-1.14.32-1.46.58l-.3-.65c.47-.4,1.15-.7,1.94-.7,1.48,0,2.1,1.01,2.1,1.99,0,1.26-.92,2.29-2.36,3.68l-.55.51v.02h3.08v.77h-4.38Z"/>
      <path d="M440.5,567.65h-.02l-1.19.64-.18-.71,1.5-.8h.79v6.85h-.9v-5.99Z"/>
    </g>
    <g>
      <path d="M379.71,625.65v-.57l.73-.71c1.75-1.67,2.54-2.55,2.55-3.58,0-.7-.34-1.34-1.36-1.34-.62,0-1.14.32-1.46.58l-.29-.65c.47-.4,1.15-.7,1.94-.7,1.48,0,2.1,1.01,2.1,1.99,0,1.26-.92,2.29-2.36,3.68l-.55.51v.02h3.08v.77h-4.38Z"/>
      <path d="M389.03,619.45c-.19-.01-.43,0-.7.04-1.46.24-2.22,1.31-2.38,2.44h.03c.33-.43.9-.79,1.66-.79,1.21,0,2.07.88,2.07,2.21,0,1.25-.85,2.42-2.28,2.42s-2.42-1.14-2.42-2.92c0-1.35.49-2.42,1.16-3.09.57-.56,1.33-.91,2.19-1.01.27-.04.51-.05.67-.05v.76ZM388.77,623.41c0-.98-.56-1.57-1.41-1.57-.56,0-1.08.35-1.33.84-.06.11-.11.24-.11.41.02,1.13.54,1.96,1.51,1.96.8,0,1.34-.66,1.34-1.64Z"/>
    </g>
    <g>
      <path d="M419.97,582.19h-2.62l-.26,1.76c.16-.02.31-.04.56-.04.53,0,1.05.12,1.48.37.54.31.98.9.98,1.76,0,1.34-1.06,2.34-2.55,2.34-.75,0-1.38-.21-1.71-.42l.23-.71c.28.17.84.38,1.47.38.88,0,1.62-.57,1.62-1.49-.01-.89-.6-1.52-1.97-1.52-.39,0-.7.04-.95.07l.44-3.29h3.28v.78Z"/>
      <path d="M423.3,582.28h-.02l-1.19.64-.18-.71,1.5-.8h.79v6.85h-.9v-5.99Z"/>
    </g>
    <g>
      <path d="M454.28,630.49v-1.87h-3.18v-.61l3.06-4.38h1v4.26h.96v.73h-.96v1.87h-.88ZM454.28,627.89v-2.29c0-.36.01-.72.03-1.08h-.03c-.21.4-.38.7-.57,1.01l-1.68,2.33v.02h2.25Z"/>
      <path d="M461.37,626.99c0,2.33-.86,3.62-2.38,3.62-1.34,0-2.25-1.25-2.27-3.52,0-2.3.99-3.56,2.38-3.56s2.27,1.29,2.27,3.47ZM457.65,627.09c0,1.78.55,2.79,1.39,2.79.95,0,1.4-1.11,1.4-2.86s-.43-2.79-1.39-2.79c-.81,0-1.4.99-1.4,2.86Z"/>
    </g>
    <g>
      <path d="M558.97,689.68c.26.17.88.43,1.52.43,1.19,0,1.56-.76,1.55-1.33,0-.96-.88-1.37-1.77-1.37h-.52v-.7h.52c.67,0,1.53-.35,1.53-1.16,0-.55-.35-1.03-1.2-1.03-.55,0-1.08.24-1.37.45l-.24-.67c.36-.26,1.05-.53,1.79-.53,1.35,0,1.96.8,1.96,1.63,0,.71-.42,1.31-1.27,1.61v.02c.84.17,1.53.8,1.53,1.76,0,1.1-.85,2.06-2.5,2.06-.77,0-1.44-.24-1.78-.46l.25-.72Z"/>
      <path d="M568.07,684.55c-.19-.01-.43,0-.7.04-1.46.24-2.22,1.31-2.38,2.44h.03c.33-.43.9-.79,1.66-.79,1.21,0,2.07.88,2.07,2.21,0,1.25-.85,2.42-2.28,2.42s-2.42-1.14-2.42-2.92c0-1.35.49-2.42,1.16-3.09.57-.56,1.33-.91,2.19-1.01.27-.04.51-.05.67-.05v.76ZM567.81,688.5c0-.98-.56-1.57-1.41-1.57-.56,0-1.08.35-1.33.84-.06.11-.11.24-.11.41.02,1.13.54,1.96,1.51,1.96.8,0,1.34-.66,1.34-1.64Z"/>
    </g>
    <g>
      <path d="M526.28,707.76v-.57l.73-.71c1.75-1.67,2.54-2.55,2.55-3.58,0-.7-.34-1.34-1.36-1.34-.62,0-1.14.32-1.46.58l-.3-.65c.47-.4,1.15-.7,1.94-.7,1.48,0,2.1,1.01,2.1,1.99,0,1.26-.92,2.29-2.36,3.68l-.55.51v.02h3.08v.77h-4.38Z"/>
      <path d="M531.69,707.76v-.57l.73-.71c1.75-1.67,2.54-2.55,2.55-3.58,0-.7-.34-1.34-1.36-1.34-.62,0-1.14.32-1.46.58l-.29-.65c.47-.4,1.15-.7,1.94-.7,1.48,0,2.1,1.01,2.1,1.99,0,1.26-.92,2.29-2.36,3.68l-.55.51v.02h3.08v.77h-4.38Z"/>
    </g>
    <g>
      <path d="M504.96,720.32c.26.17.88.43,1.52.43,1.19,0,1.56-.76,1.55-1.33-.01-.96-.88-1.37-1.77-1.37h-.52v-.7h.52c.67,0,1.53-.35,1.53-1.16,0-.55-.35-1.03-1.2-1.03-.55,0-1.08.24-1.37.45l-.24-.67c.36-.26,1.05-.53,1.79-.53,1.35,0,1.96.8,1.96,1.63,0,.71-.42,1.31-1.27,1.61v.02c.84.17,1.53.8,1.53,1.76,0,1.1-.85,2.06-2.5,2.06-.77,0-1.44-.24-1.78-.46l.25-.72Z"/>
      <path d="M514.59,714.53v.61l-2.98,6.24h-.96l2.97-6.06v-.02h-3.35v-.77h4.32Z"/>
    </g>
    <path d="M480.44,733.04c-.19-.01-.43,0-.7.04-1.46.24-2.22,1.31-2.38,2.44h.03c.33-.43.9-.79,1.66-.79,1.21,0,2.07.88,2.07,2.21,0,1.25-.85,2.42-2.28,2.42s-2.42-1.14-2.42-2.92c0-1.35.49-2.42,1.16-3.09.57-.56,1.33-.91,2.19-1.01.27-.04.51-.05.67-.05v.76ZM480.18,737c0-.98-.56-1.57-1.41-1.57-.56,0-1.08.35-1.33.84-.06.11-.11.24-.11.41.02,1.13.54,1.96,1.51,1.96.8,0,1.34-.66,1.34-1.64Z"/>
    <g>
      <path d="M499.1,751.77v-1.87h-3.18v-.61l3.06-4.38h1v4.26h.96v.73h-.96v1.87h-.88ZM499.1,749.18v-2.29c0-.36.01-.72.03-1.08h-.03c-.21.4-.38.7-.57,1.01l-1.68,2.33v.02h2.25Z"/>
      <path d="M502.18,751.12c.2.02.43,0,.75-.03.54-.07,1.04-.29,1.43-.66.45-.41.78-1.01.91-1.82h-.03c-.38.46-.93.74-1.61.74-1.23,0-2.02-.93-2.02-2.1,0-1.3.94-2.44,2.34-2.44s2.27,1.14,2.27,2.89c0,1.51-.51,2.56-1.18,3.22-.53.52-1.25.83-1.99.92-.34.05-.63.06-.85.05v-.76ZM502.52,747.18c0,.85.52,1.46,1.32,1.46.62,0,1.11-.31,1.35-.72.05-.08.08-.19.08-.34,0-1.17-.43-2.07-1.4-2.07-.79,0-1.35.7-1.35,1.67Z"/>
    </g>
    <g>
      <path d="M521.65,759.94h-2.62l-.26,1.76c.16-.02.31-.04.56-.04.53,0,1.05.12,1.48.37.54.31.98.9.98,1.76,0,1.34-1.06,2.34-2.55,2.34-.75,0-1.38-.21-1.71-.42l.23-.71c.28.17.84.38,1.47.38.88,0,1.62-.57,1.62-1.49-.01-.89-.6-1.52-1.97-1.52-.39,0-.7.04-.95.07l.44-3.29h3.28v.78Z"/>
      <path d="M527.06,759.94h-2.61l-.26,1.76c.16-.02.31-.04.56-.04.53,0,1.05.12,1.48.37.54.31.98.9.98,1.76,0,1.34-1.07,2.34-2.55,2.34-.75,0-1.38-.21-1.71-.42l.23-.71c.29.17.84.38,1.47.38.88,0,1.62-.57,1.62-1.49-.01-.89-.6-1.52-1.97-1.52-.39,0-.7.04-.95.07l.44-3.29h3.28v.78Z"/>
    </g>
    <g>
      <path d="M553.5,783.9c.26.17.88.43,1.52.43,1.19,0,1.56-.76,1.55-1.33,0-.96-.88-1.37-1.77-1.37h-.52v-.7h.52c.67,0,1.53-.35,1.53-1.16,0-.55-.35-1.03-1.2-1.03-.55,0-1.08.24-1.37.45l-.24-.67c.36-.26,1.05-.53,1.79-.53,1.35,0,1.96.8,1.96,1.63,0,.71-.42,1.31-1.27,1.61v.02c.84.17,1.53.8,1.53,1.76,0,1.1-.85,2.06-2.5,2.06-.77,0-1.44-.24-1.78-.46l.25-.72Z"/>
      <path d="M563.25,781.47c0,2.33-.86,3.62-2.38,3.62-1.34,0-2.25-1.25-2.27-3.52,0-2.3.99-3.56,2.38-3.56s2.27,1.29,2.27,3.47ZM559.52,781.57c0,1.78.55,2.79,1.39,2.79.95,0,1.4-1.11,1.4-2.86s-.43-2.79-1.39-2.79c-.81,0-1.4.99-1.4,2.86Z"/>
    </g>
    <path d="M271.63,681.72h-2.61l-.26,1.76c.16-.02.31-.04.56-.04.53,0,1.05.12,1.48.37.54.31.98.9.98,1.76,0,1.34-1.07,2.34-2.55,2.34-.75,0-1.38-.21-1.71-.42l.23-.71c.29.17.84.38,1.47.38.88,0,1.62-.57,1.62-1.49-.01-.89-.6-1.52-1.97-1.52-.39,0-.7.04-.95.07l.44-3.29h3.28v.78Z"/>
    <g>
      <path d="M294.18,681.8h-.02l-1.19.64-.18-.71,1.5-.8h.79v6.85h-.9v-5.99Z"/>
      <path d="M300.44,687.79v-1.87h-3.18v-.61l3.06-4.38h1v4.26h.96v.73h-.96v1.87h-.88ZM300.44,685.2v-2.29c0-.36.01-.72.03-1.08h-.03c-.21.4-.38.7-.57,1.01l-1.68,2.33v.02h2.25Z"/>
    </g>
    <g>
      <path d="M319.34,687.79v-.57l.73-.71c1.75-1.67,2.54-2.55,2.55-3.58,0-.7-.34-1.34-1.36-1.34-.62,0-1.14.32-1.46.58l-.3-.65c.47-.4,1.15-.7,1.94-.7,1.48,0,2.1,1.01,2.1,1.99,0,1.26-.92,2.29-2.36,3.68l-.55.51v.02h3.08v.77h-4.38Z"/>
      <path d="M325.28,687.14c.2.02.43,0,.75-.03.54-.07,1.04-.29,1.43-.66.45-.41.78-1.01.91-1.82h-.03c-.38.46-.93.74-1.61.74-1.23,0-2.02-.93-2.02-2.1,0-1.3.94-2.44,2.34-2.44s2.27,1.14,2.27,2.89c0,1.51-.51,2.56-1.18,3.22-.53.52-1.25.83-1.99.92-.34.05-.63.06-.85.05v-.76ZM325.62,683.19c0,.85.52,1.46,1.32,1.46.62,0,1.11-.31,1.35-.72.05-.08.08-.19.08-.34,0-1.17-.43-2.07-1.4-2.07-.79,0-1.35.7-1.35,1.67Z"/>
    </g>
    <g>
      <path d="M342.27,761.64h-2.61l-.26,1.76c.16-.02.31-.04.56-.04.53,0,1.05.12,1.48.37.54.31.98.9.98,1.76,0,1.34-1.07,2.34-2.55,2.34-.75,0-1.38-.21-1.71-.42l.23-.71c.29.17.84.38,1.47.38.88,0,1.62-.57,1.62-1.49-.01-.89-.6-1.52-1.97-1.52-.39,0-.7.04-.95.07l.44-3.29h3.28v.78Z"/>
      <path d="M344.13,767.06c.2.02.43,0,.75-.03.54-.07,1.04-.29,1.43-.66.45-.41.78-1.01.91-1.82h-.03c-.38.46-.93.74-1.61.74-1.23,0-2.02-.93-2.02-2.1,0-1.3.94-2.44,2.34-2.44s2.27,1.14,2.27,2.89c0,1.51-.51,2.56-1.18,3.22-.53.52-1.25.83-1.99.92-.34.05-.63.06-.85.05v-.76ZM344.47,763.11c0,.85.52,1.46,1.32,1.46.62,0,1.11-.31,1.35-.72.05-.08.08-.19.08-.34,0-1.17-.43-2.07-1.4-2.07-.79,0-1.35.7-1.35,1.67Z"/>
    </g>
    <path d="M321.75,791.02c.2.02.43,0,.75-.03.54-.07,1.04-.29,1.43-.66.45-.41.78-1.01.91-1.82h-.03c-.38.46-.93.74-1.61.74-1.23,0-2.02-.93-2.02-2.1,0-1.3.94-2.44,2.34-2.44s2.27,1.14,2.27,2.89c0,1.51-.51,2.56-1.18,3.22-.53.52-1.25.83-1.99.92-.34.05-.63.06-.85.05v-.76ZM322.09,787.08c0,.85.52,1.46,1.32,1.46.62,0,1.11-.31,1.35-.72.05-.08.08-.19.08-.34,0-1.17-.43-2.07-1.4-2.07-.79,0-1.35.7-1.35,1.67Z"/>
    <path d="M294.64,790.43c.26.17.88.43,1.52.43,1.19,0,1.56-.76,1.55-1.33-.01-.96-.88-1.37-1.77-1.37h-.52v-.7h.52c.67,0,1.53-.35,1.53-1.16,0-.55-.35-1.03-1.2-1.03-.55,0-1.08.24-1.37.45l-.24-.67c.36-.26,1.05-.53,1.79-.53,1.35,0,1.96.8,1.96,1.63,0,.71-.42,1.31-1.27,1.61v.02c.84.17,1.53.8,1.53,1.76,0,1.1-.85,2.06-2.5,2.06-.77,0-1.44-.24-1.78-.46l.25-.72Z"/>
    <g>
      <path d="M268.47,791.5v-1.87h-3.18v-.61l3.06-4.38h1v4.26h.96v.73h-.96v1.87h-.88ZM268.47,788.9v-2.29c0-.36.01-.72.03-1.08h-.03c-.21.4-.38.7-.57,1.01l-1.68,2.33v.02h2.25Z"/>
      <path d="M271.01,791.5v-.57l.73-.71c1.75-1.67,2.54-2.55,2.55-3.58,0-.7-.34-1.34-1.36-1.34-.62,0-1.14.32-1.46.58l-.29-.65c.47-.4,1.15-.7,1.94-.7,1.48,0,2.1,1.01,2.1,1.99,0,1.26-.92,2.29-2.36,3.68l-.55.51v.02h3.08v.77h-4.38Z"/>
    </g>
    <g>
      <path d="M239.82,767.71v-.57l.73-.71c1.75-1.67,2.54-2.55,2.55-3.58,0-.7-.34-1.34-1.36-1.34-.62,0-1.14.32-1.46.58l-.3-.65c.47-.4,1.15-.7,1.94-.7,1.48,0,2.1,1.01,2.1,1.99,0,1.26-.92,2.29-2.36,3.68l-.55.51v.02h3.08v.77h-4.38Z"/>
      <path d="M249.68,760.86v.61l-2.98,6.24h-.96l2.97-6.06v-.02h-3.35v-.77h4.32Z"/>
    </g>
    <g>
      <path d="M240.04,721.49c.26.17.88.43,1.52.43,1.19,0,1.56-.76,1.55-1.33-.01-.96-.88-1.37-1.77-1.37h-.52v-.7h.52c.67,0,1.53-.35,1.53-1.16,0-.55-.35-1.03-1.2-1.03-.55,0-1.08.24-1.37.45l-.24-.67c.36-.26,1.05-.53,1.79-.53,1.35,0,1.96.8,1.96,1.63,0,.71-.42,1.31-1.27,1.61v.02c.84.17,1.53.8,1.53,1.76,0,1.1-.85,2.06-2.5,2.06-.77,0-1.44-.24-1.78-.46l.25-.72Z"/>
      <path d="M248.1,722.56v-1.87h-3.18v-.61l3.06-4.38h1v4.26h.96v.73h-.96v1.87h-.88ZM248.1,719.97v-2.29c0-.36.01-.72.03-1.08h-.03c-.21.4-.38.7-.57,1.01l-1.68,2.33v.02h2.25Z"/>
    </g>
    <g>
      <path d="M323.43,843.31h-2.62l-.26,1.76c.16-.02.31-.04.56-.04.53,0,1.05.12,1.48.37.54.31.98.9.98,1.76,0,1.34-1.06,2.34-2.55,2.34-.75,0-1.38-.21-1.71-.42l.23-.71c.28.17.84.38,1.47.38.88,0,1.62-.57,1.62-1.49-.01-.89-.6-1.52-1.97-1.52-.39,0-.7.04-.95.07l.44-3.29h3.28v.78Z"/>
      <path d="M324.74,849.38v-.57l.73-.71c1.75-1.67,2.54-2.55,2.55-3.58,0-.7-.34-1.34-1.36-1.34-.62,0-1.14.32-1.46.58l-.29-.65c.47-.4,1.15-.7,1.94-.7,1.48,0,2.1,1.01,2.1,1.99,0,1.26-.92,2.29-2.36,3.68l-.55.51v.02h3.08v.77h-4.38Z"/>
    </g>
    <g>
      <path d="M296.08,843.18c-.19-.01-.43,0-.7.04-1.46.24-2.22,1.31-2.38,2.44h.03c.33-.43.9-.79,1.66-.79,1.21,0,2.07.88,2.07,2.21,0,1.25-.85,2.42-2.28,2.42s-2.42-1.14-2.42-2.92c0-1.35.49-2.42,1.16-3.09.57-.56,1.33-.91,2.19-1.01.27-.04.51-.05.67-.05v.76ZM295.81,847.14c0-.98-.56-1.57-1.41-1.57-.56,0-1.08.35-1.33.84-.06.11-.11.24-.11.41.02,1.13.54,1.96,1.51,1.96.8,0,1.34-.66,1.34-1.64Z"/>
      <path d="M302.13,845.88c0,2.33-.86,3.62-2.38,3.62-1.34,0-2.25-1.25-2.27-3.52,0-2.3.99-3.56,2.38-3.56s2.27,1.29,2.27,3.47ZM298.41,845.99c0,1.78.55,2.79,1.39,2.79.95,0,1.4-1.11,1.4-2.86s-.43-2.79-1.39-2.79c-.81,0-1.4.99-1.4,2.86Z"/>
    </g>
    <g>
      <path d="M270.16,843.31h-2.62l-.26,1.76c.16-.02.31-.04.56-.04.53,0,1.05.12,1.48.37.54.31.98.9.98,1.76,0,1.34-1.06,2.34-2.55,2.34-.75,0-1.38-.21-1.71-.42l.23-.71c.28.17.84.38,1.47.38.88,0,1.62-.57,1.62-1.49-.01-.89-.6-1.52-1.97-1.52-.39,0-.7.04-.95.07l.44-3.29h3.28v.78Z"/>
      <path d="M271.7,848.32c.26.17.88.43,1.52.43,1.19,0,1.56-.76,1.55-1.33-.01-.96-.88-1.37-1.77-1.37h-.52v-.7h.52c.67,0,1.53-.35,1.53-1.16,0-.55-.35-1.03-1.2-1.03-.55,0-1.08.24-1.37.45l-.24-.67c.36-.26,1.05-.53,1.79-.53,1.35,0,1.96.8,1.96,1.63,0,.71-.42,1.31-1.26,1.61v.02c.84.17,1.53.8,1.53,1.76,0,1.1-.85,2.06-2.5,2.06-.77,0-1.44-.24-1.78-.46l.25-.72Z"/>
    </g>
    <g>
      <path d="M245.47,866.77h-2.61l-.26,1.76c.16-.02.31-.04.56-.04.53,0,1.05.12,1.48.37.54.31.98.9.98,1.76,0,1.34-1.06,2.34-2.55,2.34-.75,0-1.38-.21-1.71-.42l.23-.71c.28.17.84.38,1.47.38.88,0,1.62-.57,1.62-1.49-.01-.89-.6-1.52-1.97-1.52-.39,0-.7.04-.95.07l.44-3.29h3.28v.78Z"/>
      <path d="M249.66,872.84v-1.87h-3.18v-.61l3.06-4.38h1v4.26h.96v.73h-.96v1.87h-.88ZM249.66,870.25v-2.29c0-.36.01-.72.03-1.08h-.03c-.21.4-.38.7-.57,1.01l-1.68,2.33v.02h2.25Z"/>
    </g>
    <g>
      <path d="M241.6,902.63c.26.17.88.43,1.52.43,1.19,0,1.56-.76,1.55-1.33-.01-.96-.88-1.37-1.77-1.37h-.52v-.7h.52c.67,0,1.53-.35,1.53-1.16,0-.55-.35-1.03-1.2-1.03-.55,0-1.08.24-1.37.45l-.24-.67c.36-.26,1.05-.53,1.79-.53,1.35,0,1.96.8,1.96,1.63,0,.71-.42,1.31-1.27,1.61v.02c.84.17,1.53.8,1.53,1.76,0,1.1-.85,2.06-2.5,2.06-.77,0-1.44-.24-1.78-.46l.25-.72Z"/>
      <path d="M246.7,901.96c0-.87.52-1.48,1.36-1.83v-.03c-.77-.36-1.1-.95-1.1-1.54,0-1.09.92-1.82,2.12-1.82,1.33,0,1.99.83,1.99,1.69,0,.58-.28,1.2-1.13,1.6v.03c.85.34,1.38.94,1.38,1.77,0,1.19-1.02,1.99-2.33,1.99-1.43,0-2.3-.85-2.3-1.86ZM250.4,901.92c0-.83-.58-1.23-1.51-1.5-.8.23-1.23.76-1.23,1.41-.03.7.5,1.31,1.37,1.31s1.37-.52,1.37-1.22ZM247.84,898.49c0,.69.52,1.05,1.31,1.27.59-.2,1.04-.62,1.04-1.24,0-.55-.33-1.12-1.16-1.12-.77,0-1.19.51-1.19,1.1Z"/>
    </g>
    <g>
      <path d="M245.47,924.41h-2.61l-.26,1.76c.16-.02.31-.04.56-.04.53,0,1.05.12,1.48.37.54.31.98.9.98,1.76,0,1.34-1.06,2.34-2.55,2.34-.75,0-1.38-.21-1.71-.42l.23-.71c.28.17.84.38,1.47.38.88,0,1.62-.57,1.62-1.49-.01-.89-.6-1.52-1.97-1.52-.39,0-.7.04-.95.07l.44-3.29h3.28v.78Z"/>
      <path d="M246.7,928.75c0-.87.52-1.48,1.36-1.83v-.03c-.77-.36-1.1-.95-1.1-1.54,0-1.09.92-1.82,2.12-1.82,1.33,0,1.99.83,1.99,1.69,0,.58-.28,1.2-1.13,1.6v.03c.85.34,1.38.94,1.38,1.77,0,1.19-1.02,1.99-2.33,1.99-1.43,0-2.3-.85-2.3-1.86ZM250.39,928.7c0-.83-.58-1.23-1.51-1.5-.8.23-1.23.76-1.23,1.41-.03.7.5,1.31,1.37,1.31s1.37-.52,1.37-1.22ZM247.84,925.28c0,.69.52,1.05,1.31,1.27.59-.2,1.04-.62,1.04-1.24,0-.55-.33-1.12-1.16-1.12-.77,0-1.19.51-1.19,1.1Z"/>
    </g>
    <g>
      <path d="M340.99,932.76v-1.87h-3.18v-.61l3.06-4.38h1v4.26h.96v.73h-.96v1.87h-.88ZM340.99,930.16v-2.29c0-.36.01-.72.03-1.08h-.03c-.21.4-.38.7-.57,1.01l-1.68,2.33v.02h2.25Z"/>
      <path d="M345.55,926.77h-.02l-1.19.64-.18-.71,1.5-.8h.79v6.85h-.9v-5.99Z"/>
    </g>
    <g>
      <path d="M338.34,902.63c.26.17.88.43,1.52.43,1.19,0,1.56-.76,1.55-1.33-.01-.96-.88-1.37-1.77-1.37h-.52v-.7h.52c.67,0,1.53-.35,1.53-1.16,0-.55-.35-1.03-1.2-1.03-.55,0-1.08.24-1.37.45l-.24-.67c.36-.26,1.05-.53,1.79-.53,1.35,0,1.96.8,1.96,1.63,0,.71-.42,1.31-1.27,1.61v.02c.84.17,1.53.8,1.53,1.76,0,1.1-.85,2.06-2.5,2.06-.77,0-1.44-.24-1.78-.46l.25-.72Z"/>
      <path d="M344.07,903.04c.2.02.43,0,.75-.03.54-.07,1.04-.29,1.43-.66.45-.41.78-1.01.91-1.82h-.03c-.38.46-.93.74-1.61.74-1.23,0-2.02-.93-2.02-2.1,0-1.3.94-2.44,2.34-2.44s2.27,1.14,2.27,2.89c0,1.51-.51,2.56-1.18,3.22-.53.52-1.25.83-1.99.92-.34.05-.63.06-.85.05v-.76ZM344.41,899.1c0,.85.52,1.46,1.32,1.46.62,0,1.11-.31,1.35-.72.05-.08.08-.19.08-.34,0-1.17-.43-2.07-1.4-2.07-.79,0-1.35.7-1.35,1.67Z"/>
    </g>
    <g>
      <path d="M340.14,864.98h-.02l-1.19.64-.18-.71,1.5-.8h.79v6.85h-.9v-5.99Z"/>
      <path d="M344.07,870.31c.2.02.43,0,.75-.03.54-.07,1.04-.29,1.43-.66.45-.41.78-1.01.91-1.82h-.03c-.38.46-.93.74-1.61.74-1.23,0-2.02-.93-2.02-2.1,0-1.3.94-2.44,2.34-2.44s2.27,1.14,2.27,2.89c0,1.51-.51,2.56-1.18,3.22-.53.52-1.25.83-1.99.92-.34.05-.63.06-.85.05v-.76ZM344.41,866.37c0,.85.52,1.46,1.32,1.46.62,0,1.11-.31,1.35-.72.05-.08.08-.19.08-.34,0-1.17-.43-2.07-1.4-2.07-.79,0-1.35.7-1.35,1.67Z"/>
    </g>
    <g>
      <path d="M116.29,733.17h-2.61l-.26,1.76c.16-.02.31-.04.56-.04.53,0,1.05.12,1.48.37.54.31.98.9.98,1.76,0,1.34-1.06,2.34-2.55,2.34-.75,0-1.38-.21-1.71-.42l.23-.71c.28.17.84.38,1.47.38.88,0,1.62-.57,1.62-1.49-.01-.89-.6-1.52-1.97-1.52-.39,0-.7.04-.95.07l.44-3.29h3.28v.78Z"/>
      <path d="M122.16,735.74c0,2.33-.86,3.62-2.38,3.62-1.34,0-2.25-1.25-2.27-3.52,0-2.3.99-3.56,2.38-3.56s2.27,1.29,2.27,3.47ZM118.44,735.85c0,1.78.55,2.79,1.39,2.79.95,0,1.4-1.11,1.4-2.86s-.43-2.79-1.39-2.79c-.81,0-1.4.99-1.4,2.86Z"/>
    </g>
    <g>
      <path d="M81.91,718.28v-1.87h-3.18v-.61l3.06-4.38h1v4.26h.96v.73h-.96v1.87h-.88ZM81.91,715.69v-2.29c0-.36.01-.72.03-1.08h-.03c-.21.4-.38.7-.57,1.01l-1.68,2.33v.02h2.25Z"/>
      <path d="M87.32,718.28v-1.87h-3.18v-.61l3.06-4.38h1v4.26h.96v.73h-.96v1.87h-.88ZM87.32,715.69v-2.29c0-.36.01-.72.03-1.08h-.03c-.21.4-.38.7-.57,1.01l-1.68,2.33v.02h2.25Z"/>
    </g>
    <g>
      <path d="M59.12,698.01h-2.61l-.26,1.76c.16-.02.31-.04.56-.04.53,0,1.05.12,1.48.37.54.31.98.9.98,1.76,0,1.34-1.06,2.34-2.55,2.34-.75,0-1.38-.21-1.71-.42l.23-.71c.28.17.84.38,1.47.38.88,0,1.62-.57,1.62-1.49-.01-.89-.6-1.52-1.97-1.52-.39,0-.7.04-.95.07l.44-3.29h3.28v.78Z"/>
      <path d="M64.88,697.23v.61l-2.98,6.24h-.96l2.97-6.06v-.02h-3.35v-.77h4.32Z"/>
    </g>
    <g>
      <path d="M27.07,689.5v-1.87h-3.18v-.61l3.06-4.38h1v4.26h.96v.73h-.96v1.87h-.88ZM27.07,686.9v-2.29c0-.36.01-.72.03-1.08h-.03c-.21.4-.38.7-.57,1.01l-1.68,2.33v.02h2.25Z"/>
      <path d="M29.53,687.76c0-.86.52-1.48,1.36-1.83v-.03c-.77-.36-1.1-.95-1.1-1.54,0-1.09.92-1.82,2.12-1.82,1.33,0,1.99.83,1.99,1.69,0,.58-.28,1.2-1.13,1.6v.03c.85.34,1.38.94,1.38,1.77,0,1.19-1.02,1.99-2.33,1.99-1.43,0-2.3-.85-2.3-1.86ZM33.22,687.71c0-.83-.58-1.23-1.51-1.5-.8.23-1.23.76-1.23,1.41-.03.7.5,1.31,1.37,1.31s1.37-.52,1.37-1.22ZM30.67,684.29c0,.69.52,1.05,1.31,1.27.59-.2,1.04-.62,1.04-1.24,0-.55-.33-1.12-1.16-1.12-.77,0-1.19.51-1.19,1.1Z"/>
    </g>
    <g>
      <path d="M36.08,780.77h-.02l-1.19.64-.18-.71,1.5-.8h.79v6.85h-.9v-5.99Z"/>
      <path d="M39.39,785.02c0-.86.52-1.48,1.36-1.83v-.03c-.77-.36-1.1-.95-1.1-1.54,0-1.09.92-1.82,2.12-1.82,1.33,0,1.99.83,1.99,1.69,0,.58-.28,1.2-1.13,1.6v.03c.85.34,1.38.94,1.38,1.77,0,1.19-1.02,1.99-2.33,1.99-1.43,0-2.3-.85-2.3-1.86ZM43.08,784.98c0-.83-.58-1.23-1.51-1.5-.8.23-1.23.76-1.23,1.41-.03.7.5,1.31,1.37,1.31s1.37-.52,1.37-1.22ZM40.53,781.55c0,.69.52,1.05,1.31,1.27.59-.2,1.04-.62,1.04-1.24,0-.55-.33-1.12-1.16-1.12-.77,0-1.19.51-1.19,1.1Z"/>
    </g>
    <g>
      <path d="M60.76,771.86v-.57l.73-.71c1.75-1.67,2.54-2.55,2.55-3.58,0-.7-.34-1.34-1.36-1.34-.62,0-1.14.32-1.46.58l-.3-.65c.47-.4,1.15-.7,1.94-.7,1.48,0,2.1,1.01,2.1,1.99,0,1.26-.92,2.29-2.36,3.68l-.55.51v.02h3.08v.77h-4.38Z"/>
      <path d="M66.09,770.12c0-.86.52-1.48,1.36-1.83v-.03c-.77-.36-1.1-.95-1.1-1.54,0-1.09.92-1.82,2.12-1.82,1.33,0,1.99.83,1.99,1.69,0,.58-.28,1.2-1.13,1.6v.03c.85.34,1.38.94,1.38,1.77,0,1.19-1.02,1.99-2.33,1.99-1.43,0-2.3-.85-2.3-1.86ZM69.78,770.08c0-.83-.58-1.23-1.51-1.5-.8.23-1.23.76-1.23,1.41-.03.7.5,1.31,1.37,1.31s1.37-.52,1.37-1.22ZM67.23,766.65c0,.69.52,1.05,1.31,1.27.59-.2,1.04-.62,1.04-1.24,0-.55-.33-1.12-1.16-1.12-.77,0-1.19.51-1.19,1.1Z"/>
    </g>
    <g>
      <path d="M85.98,757.01c.26.17.88.43,1.52.43,1.19,0,1.56-.76,1.55-1.33-.01-.96-.88-1.37-1.77-1.37h-.52v-.7h.52c.67,0,1.53-.35,1.53-1.16,0-.55-.35-1.03-1.2-1.03-.55,0-1.08.24-1.37.45l-.24-.67c.36-.26,1.05-.53,1.79-.53,1.35,0,1.96.8,1.96,1.63,0,.71-.42,1.31-1.27,1.61v.02c.84.17,1.53.8,1.53,1.76,0,1.1-.85,2.06-2.5,2.06-.77,0-1.44-.24-1.78-.46l.25-.72Z"/>
      <path d="M91.17,758.08v-.57l.73-.71c1.75-1.67,2.54-2.55,2.55-3.58,0-.7-.34-1.34-1.36-1.34-.62,0-1.14.32-1.46.58l-.3-.65c.47-.4,1.15-.7,1.94-.7,1.48,0,2.1,1.01,2.1,1.99,0,1.26-.92,2.29-2.36,3.68l-.55.51v.02h3.08v.77h-4.38Z"/>
    </g>
  </g>
</svg>